<svg width="1033" height="833" viewBox="0 0 1033 833" fill="none" xmlns="http://www.w3.org/2000/svg">
<g clip-path="url(#clip0)">
<path opacity="0.1" d="M530.99 832.64C788.62 832.64 997.47 646.247 997.47 416.32C997.47 186.393 788.62 0 530.99 0C273.36 0 64.51 186.393 64.51 416.32C64.51 646.247 273.36 832.64 530.99 832.64Z" fill="#62B5E5"/>
<path opacity="0.1" d="M172 655.94C266.993 655.94 344 644.004 344 629.28C344 614.556 266.993 602.62 172 602.62C77.007 602.62 0 614.556 0 629.28C0 644.004 77.007 655.94 172 655.94Z" fill="#62B5E5"/>
<path opacity="0.1" d="M254.67 782.95C291.618 782.95 321.57 776.763 321.57 769.13C321.57 761.497 291.618 755.31 254.67 755.31C217.722 755.31 187.77 761.497 187.77 769.13C187.77 776.763 217.722 782.95 254.67 782.95Z" fill="#62B5E5"/>
<path opacity="0.1" d="M711.8 729.78C748.748 729.78 778.7 723.593 778.7 715.96C778.7 708.327 748.748 702.14 711.8 702.14C674.852 702.14 644.9 708.327 644.9 715.96C644.9 723.593 674.852 729.78 711.8 729.78Z" fill="#62B5E5"/>
<path opacity="0.1" d="M484.79 718.18C544.873 718.18 593.58 709.929 593.58 699.75C593.58 689.571 544.873 681.32 484.79 681.32C424.707 681.32 376 689.571 376 699.75C376 709.929 424.707 718.18 484.79 718.18Z" fill="#6C63FF"/>
<path opacity="0.1" d="M805.34 644.06C930.659 644.06 1032.25 628.148 1032.25 608.52C1032.25 588.892 930.659 572.98 805.34 572.98C680.021 572.98 578.43 588.892 578.43 608.52C578.43 628.148 680.021 644.06 805.34 644.06Z" fill="#62B5E5"/>
<path d="M47.03 546.49C41.9329 556.406 39.5523 567.494 40.1302 578.628C40.7081 589.763 44.2238 600.545 50.32 609.88C52.32 612.88 54.16 615.04 55.63 615.61C62.68 618.38 76.8 625.19 76.8 625.19L110.8 611.83C110.8 611.83 116.32 582.63 121.54 557.56C125.1 540.46 128.54 525.29 129.95 522.63C133.47 516.08 129.95 444.77 129.95 444.77C129.95 444.77 95.95 442.49 86.6 468.7L82.51 476.7L47.03 546.49Z" fill="#A8A8A8"/>
<path opacity="0.1" d="M92.17 554.37C112.84 578.06 121.56 557.57 121.56 557.57C125.12 540.47 128.56 525.3 129.97 522.64C133.49 516.09 129.97 444.78 129.97 444.78C129.97 444.78 95.97 442.5 86.62 468.71L82.53 476.71C79.91 497.68 77.32 537.32 92.17 554.37Z" fill="white"/>
<path d="M96.71 620.4L216.71 606.54L238.12 465.66L221.93 429.07C215.09 413.487 205.618 399.199 193.93 386.83C185.78 378.24 175.93 369.98 165.57 365.83C164.154 365.259 162.709 364.765 161.24 364.35C159.551 363.837 157.766 363.73 156.028 364.038C154.29 364.345 152.65 365.059 151.24 366.12C136.44 376.61 131.15 421.21 129.44 442.68C128.736 451.503 127.545 460.279 125.87 468.97L96.71 620.4Z" fill="#A8A8A8"/>
<path opacity="0.1" d="M176.6 464.14L151.6 525.64C164.7 516.06 184.11 463.89 184.11 463.89L201.5 523.37L187.64 460.68C189.669 447.066 190.259 433.277 189.4 419.54C188.3 403.8 173.53 378.54 165.51 365.82C164.094 365.249 162.649 364.755 161.18 364.34C159.491 363.827 157.706 363.72 155.968 364.028C154.23 364.335 152.59 365.049 151.18 366.11C157.48 378.76 173.23 410.39 178.03 419.79C184.12 431.63 176.6 464.14 176.6 464.14Z" fill="white"/>
<path d="M197.01 625.19H262.12C264.798 625.191 267.449 624.647 269.91 623.591C272.372 622.535 274.593 620.99 276.438 619.049C278.284 617.108 279.715 614.812 280.645 612.301C281.576 609.789 281.986 607.115 281.85 604.44C280.41 576.52 276.76 526.74 268.08 495.14C263.39 478.09 257.94 469.14 252.94 464.73C250.595 462.467 247.568 461.043 244.33 460.68C241.874 460.468 239.415 461.065 237.33 462.38C225.24 473.97 211.12 534.96 211.12 534.96L197.01 625.19Z" fill="#A8A8A8"/>
<path opacity="0.1" d="M257.12 571.1C259.8 578.53 260.86 587.1 257.12 595.45L242.61 602.62C242.61 602.62 203.61 586.09 208.35 552.21C208.35 552.21 209.63 545.21 223.06 545.75C230.613 546.115 237.886 548.721 243.952 553.236C250.018 557.751 254.602 563.97 257.12 571.1Z" fill="white"/>
<path opacity="0.1" d="M241.62 482.04C241.17 470.16 247.62 466.04 252.95 464.73C250.605 462.467 247.578 461.043 244.34 460.68C240.63 463.785 238.001 467.986 236.83 472.68L223.23 538.97C223.23 538.97 242.38 501.95 241.62 482.04Z" fill="white"/>
<path d="M179.88 534.46L212.12 578.56L217.71 614.96L196.99 625.19L167.12 631.79C164.243 632.429 161.285 632.621 158.35 632.36L76.84 625.19L87.93 599.48L126.23 545.71L179.88 534.46Z" fill="#A8A8A8"/>
<path opacity="0.1" d="M167.4 519.32C167.4 519.32 189.4 520.83 181.14 558.63C172.88 596.43 87.89 599.46 87.89 599.46C87.89 599.46 105.95 567.46 133.73 544.53C136.85 541.96 139.86 539.28 142.73 536.42C149.12 530.03 161.34 518.8 167.4 519.32Z" fill="white"/>
<path opacity="0.1" d="M187.19 547.82C187.19 547.82 217 574.95 214.19 616.7L187.19 547.82Z" fill="black"/>
<path opacity="0.1" d="M237.34 462.38C237.34 462.38 206.06 503.98 202.55 567.99L237.34 462.38Z" fill="black"/>
<path opacity="0.1" d="M129.98 444.75C129.98 444.75 145.12 513.5 107.32 565.32L129.98 444.75Z" fill="black"/>
<path d="M405.73 699.37H568.87C570.447 699.362 571.995 698.945 573.363 698.161C574.732 697.378 575.874 696.253 576.679 694.897C577.485 693.542 577.925 692 577.959 690.424C577.992 688.847 577.617 687.289 576.87 685.9L495.34 534.42C494.559 532.968 493.399 531.754 491.983 530.909C490.567 530.063 488.949 529.616 487.3 529.616C485.651 529.616 484.033 530.063 482.617 530.909C481.201 531.754 480.041 532.968 479.26 534.42L397.69 685.9C396.941 687.292 396.566 688.854 396.602 690.434C396.637 692.014 397.081 693.558 397.891 694.914C398.701 696.271 399.849 697.395 401.223 698.176C402.597 698.957 404.15 699.368 405.73 699.37ZM497.68 671.69H476.92V650.94H497.68V671.69ZM497.68 637.1H476.92V595.59H497.68V637.1Z" fill="#464353"/>
<path d="M405.73 704.37H568.87C570.447 704.362 571.995 703.945 573.363 703.161C574.732 702.378 575.874 701.253 576.679 699.897C577.485 698.542 577.925 697 577.959 695.424C577.992 693.847 577.617 692.289 576.87 690.9L495.34 539.42C494.559 537.968 493.399 536.754 491.983 535.909C490.567 535.063 488.949 534.616 487.3 534.616C485.651 534.616 484.033 535.063 482.617 535.909C481.201 536.754 480.041 537.968 479.26 539.42L397.69 690.9C396.941 692.292 396.566 693.854 396.602 695.434C396.637 697.014 397.081 698.558 397.891 699.914C398.701 701.271 399.849 702.395 401.223 703.176C402.597 703.957 404.15 704.368 405.73 704.37ZM497.68 676.69H476.92V655.94H497.68V676.69ZM497.68 642.1H476.92V600.59H497.68V642.1Z" fill="#86BC25"/>
<path d="M233.81 236.72C233.7 238.81 234.74 240.72 235.35 242.72C236.359 246.583 236.259 250.652 235.06 254.46C233.94 258.46 232.06 262.69 233.49 266.6C233.82 267.52 234.32 268.36 234.62 269.28C235.86 273.08 233.56 277.08 231.04 280.19L240.93 287.12C242.374 288.317 244.092 289.138 245.93 289.51C247.78 289.73 249.93 288.74 250.31 286.92C250.44 286.3 250.31 285.65 250.43 285.02C250.552 284.205 250.867 283.432 251.349 282.764C251.83 282.095 252.465 281.552 253.2 281.18C254.685 280.452 256.342 280.144 257.99 280.29C264.06 280.62 269.22 284.61 274.74 287.17C278.379 288.746 282.151 289.997 286.01 290.91C288.2 291.48 290.63 292 292.61 290.91C294.59 289.82 295.5 287.29 295.35 285C295.043 282.722 294.331 280.518 293.25 278.49C292.159 276.464 291.501 274.234 291.32 271.94C291.32 268.58 293.16 265.52 293.78 262.22C294.65 257.53 292.88 252.76 290.72 248.5C288.56 244.24 285.94 240.14 284.89 235.5C284.682 234.094 284.316 232.715 283.8 231.39C283.3 230.384 282.622 229.476 281.8 228.71C278.09 225.04 272.8 223.3 267.62 222.92C262.44 222.54 257.21 223.39 252.07 224.28C250.109 224.56 248.178 225.018 246.3 225.65C243.617 226.716 241.069 228.096 238.71 229.76C236.37 231.38 233.96 233.75 233.81 236.72Z" fill="#464353"/>
<g opacity="0.1">
<path opacity="0.1" d="M291.29 269.89C291.29 270.19 291.29 270.49 291.35 270.78C291.66 267.85 293.2 265.1 293.75 262.17C293.962 260.996 294.026 259.8 293.94 258.61C293.94 259.13 293.84 259.61 293.75 260.17C293.12 263.47 291.25 266.53 291.29 269.89Z" fill="black"/>
<path opacity="0.1" d="M236.02 246.72C236.138 244.696 235.911 242.668 235.35 240.72C234.758 239.203 234.274 237.645 233.9 236.06C233.9 236.27 233.82 236.47 233.81 236.68C233.7 238.77 234.74 240.68 235.35 242.68C235.736 243.994 235.961 245.351 236.02 246.72Z" fill="black"/>
<path opacity="0.1" d="M295.26 284.45C295.19 285.344 294.911 286.208 294.446 286.974C293.98 287.74 293.341 288.386 292.58 288.86C290.58 289.95 288.17 289.43 285.98 288.86C282.119 287.949 278.347 286.694 274.71 285.11C269.19 282.56 264.03 278.57 257.96 278.24C256.312 278.094 254.655 278.402 253.17 279.13C252.435 279.503 251.8 280.045 251.319 280.714C250.837 281.382 250.522 282.155 250.4 282.97C250.33 283.6 250.4 284.25 250.28 284.87C249.89 286.69 247.75 287.68 245.9 287.46C244.062 287.088 242.344 286.267 240.9 285.07L232.01 278.83C231.68 279.28 231.35 279.72 231.01 280.13L240.9 287.07C242.344 288.267 244.062 289.088 245.9 289.46C247.75 289.68 249.9 288.69 250.28 286.87C250.41 286.25 250.28 285.6 250.4 284.97C250.522 284.155 250.837 283.382 251.319 282.714C251.8 282.045 252.435 281.503 253.17 281.13C254.655 280.402 256.312 280.094 257.96 280.24C264.03 280.57 269.19 284.56 274.71 287.11C278.347 288.694 282.119 289.949 285.98 290.86C288.17 291.43 290.6 291.95 292.58 290.86C294.56 289.77 295.47 287.24 295.32 284.95C295.31 284.78 295.28 284.62 295.26 284.45Z" fill="black"/>
<path opacity="0.1" d="M234.62 269.23C234.743 269.632 234.834 270.043 234.89 270.46C235.045 269.377 234.953 268.273 234.62 267.23C234.32 266.31 233.82 265.47 233.49 264.55C233.249 263.882 233.095 263.187 233.03 262.48C232.882 263.854 233.039 265.244 233.49 266.55C233.82 267.47 234.32 268.32 234.62 269.23Z" fill="black"/>
</g>
<path d="M246.36 648.68C246.291 648.965 246.129 649.218 245.9 649.4C245.657 649.526 245.384 649.585 245.11 649.57C241.55 649.65 237.99 649.57 234.44 649.82C231.08 650.11 227.71 650.82 224.36 650.44C223.288 650.478 222.231 650.182 221.335 649.592C220.44 649.003 219.749 648.149 219.36 647.15C219.149 646.714 218.962 646.267 218.8 645.81C217.877 643.453 217.412 640.941 217.43 638.41C217.43 637.74 217.43 637.09 217.43 636.41C217.386 635.677 217.289 634.949 217.14 634.23C216.837 633.407 216.873 632.497 217.24 631.7C218.66 629.11 222.09 628.59 224.73 628.39C230.846 627.929 236.997 628.381 242.98 629.73C243.45 632.03 243.98 634.31 244.54 636.59C244.953 638.263 245.393 639.93 245.86 641.59C246.173 642.618 246.427 643.663 246.62 644.72C246.867 646.041 246.778 647.403 246.36 648.68Z" fill="#464353"/>
<path opacity="0.06" d="M246.36 648.68C246.291 648.965 246.129 649.218 245.9 649.4C245.657 649.526 245.384 649.585 245.11 649.57C241.55 649.65 237.99 649.57 234.44 649.82C231.08 650.11 227.71 650.82 224.36 650.44C223.288 650.478 222.231 650.182 221.335 649.592C220.44 649.003 219.749 648.149 219.36 647.15C219.149 646.714 218.962 646.267 218.8 645.81H220.08C224.29 645.81 228.51 645.66 232.72 645.66C233.99 645.66 235.27 645.6 236.53 645.45C237.79 645.3 238.82 645.09 239.97 644.95C241.692 644.785 243.421 644.715 245.15 644.74H246.57C246.83 646.05 246.758 647.405 246.36 648.68Z" fill="black"/>
<path d="M320.01 630.11C318.895 631.411 317.472 632.412 315.87 633.02C308.75 636.02 300.52 634.67 293.17 632.23C291.526 631.619 289.838 631.135 288.12 630.78C286.553 630.56 284.972 630.45 283.39 630.45C282.26 630.45 281.13 630.36 280 630.29C277.14 630.11 274.29 629.83 271.45 629.55C269.47 629.405 267.504 629.107 265.57 628.66C265.02 628.519 264.492 628.304 264 628.02C263.58 627.836 263.222 627.535 262.967 627.155C262.712 626.774 262.571 626.328 262.56 625.87C262.64 624.6 263.96 623.87 265.12 623.32C275.41 618.87 286.59 616.94 297.69 615.39C298.819 615.202 299.919 614.865 300.96 614.39C302.21 613.89 302.34 614.71 302.96 615.63C303.253 616.056 303.588 616.451 303.96 616.81C305.166 617.899 306.581 618.729 308.12 619.25C310.82 620.25 313.71 620.52 316.41 621.47C317.227 621.753 318.009 622.129 318.74 622.59C319.386 622.942 319.942 623.436 320.367 624.036C320.793 624.636 321.075 625.325 321.192 626.051C321.31 626.777 321.26 627.52 321.047 628.223C320.833 628.927 320.461 629.572 319.96 630.11H320.01Z" fill="#464353"/>
<path opacity="0.06" d="M320.01 630.11C318.895 631.411 317.472 632.412 315.87 633.02C308.75 636.02 300.52 634.67 293.17 632.23C291.526 631.619 289.838 631.135 288.12 630.78C286.553 630.56 284.972 630.45 283.39 630.45C282.26 630.45 281.13 630.36 280 630.29C280.92 629.42 281.86 628.57 282.82 627.75C283.516 627.099 284.317 626.572 285.19 626.19C286.277 625.834 287.435 625.755 288.56 625.96C294.28 626.75 299.42 630.76 305.19 630.41C307.878 630.101 310.478 629.261 312.84 627.94C314.761 627.158 316.472 625.939 317.84 624.38C318.253 623.843 318.568 623.237 318.77 622.59C319.416 622.942 319.972 623.436 320.397 624.036C320.823 624.636 321.105 625.325 321.222 626.051C321.34 626.777 321.29 627.52 321.077 628.223C320.863 628.927 320.491 629.572 319.99 630.11H320.01Z" fill="black"/>
<path d="M318 456.32C317 458.32 315.72 460.49 313.56 461.11C310.42 462.01 307.4 459.19 306.03 456.23C304.163 451.885 303.81 447.039 305.03 442.47C305.6 440.16 306.47 437.94 306.96 435.62C307.314 433.668 307.527 431.693 307.6 429.71C307.896 426.753 307.825 423.77 307.39 420.83C305.78 412.24 298.39 405.83 295.93 397.39C294.69 393.18 294.75 388.7 294.82 384.31C294.797 383.2 294.911 382.092 295.16 381.01C295.234 380.715 295.335 380.427 295.46 380.15C297.11 376.49 302 375.99 305.4 373.86C307.28 372.69 311.55 368.92 313.13 372.36C313.471 373.126 313.726 373.928 313.89 374.75C314.54 377.81 314.28 381.4 314.44 384.29C315.05 395.21 317.77 406.11 316.51 416.97C316.21 418.821 316.062 420.694 316.07 422.57C316.34 427.27 319.28 431.34 320.63 435.84C322.71 442.61 321.04 449.98 318 456.32Z" fill="#E1C4B0"/>
<path opacity="0.1" d="M313.94 374.77C313.197 374.5 312.383 374.5 311.64 374.77L304.87 376.77C302.498 377.403 300.185 378.243 297.96 379.28C296.989 379.757 296.067 380.33 295.21 380.99C295.284 380.695 295.385 380.407 295.51 380.13C297.16 376.47 302.05 375.97 305.45 373.84C307.33 372.67 311.6 368.9 313.18 372.34C313.524 373.119 313.779 373.934 313.94 374.77Z" fill="black"/>
<path d="M314.38 374.01C313.972 373.762 313.512 373.613 313.036 373.575C312.56 373.537 312.082 373.61 311.64 373.79L304.87 375.79C302.498 376.423 300.185 377.263 297.96 378.3C296.779 378.875 295.674 379.593 294.67 380.44C291.51 374.95 290.67 368.44 290.09 362.14C289.77 358.47 289.53 354.79 289.39 351.14C289.233 348.513 289.287 345.878 289.55 343.26C289.93 340.26 290.8 337.33 291.34 334.35C291.662 332.605 291.869 330.842 291.96 329.07C292.219 325.199 292.042 321.311 291.43 317.48C290.849 313.408 289.919 309.393 288.65 305.48C288.01 303.69 287.24 301.96 286.54 300.2L286.3 299.58C285.036 296.354 284.003 293.043 283.21 289.67C282.89 288.29 282.87 286.84 281.81 285.9C282.805 285.78 283.808 285.74 284.81 285.78C285.01 285.78 285.21 285.78 285.41 285.78C289.518 286.038 293.476 287.422 296.85 289.78C301.196 292.915 304.498 297.284 306.33 302.32C308.44 307.95 308.79 314.07 309.06 320.08C309.6 331.893 309.933 343.713 310.06 355.54C310.06 357.81 310.16 360.23 311.46 362.1C311.825 362.561 312.159 363.045 312.46 363.55C312.93 364.55 312.86 365.66 313.24 366.67C313.519 367.276 313.836 367.864 314.19 368.43C314.638 369.286 314.887 370.233 314.92 371.198C314.953 372.164 314.768 373.125 314.38 374.01Z" fill="#ABBA92"/>
<path d="M247.82 256.63C246.82 256.3 245.82 255.95 244.82 255.63L246.9 255.79C247.247 256.023 247.557 256.306 247.82 256.63Z" fill="#FBBEBE"/>
<path d="M288.77 292.72C288.57 293.4 288.37 294.08 288.15 294.72C287.642 296.363 287.024 297.97 286.3 299.53C285.167 302.093 283.562 304.42 281.57 306.39C280.912 307.083 280.105 307.616 279.21 307.95C278.453 308.144 277.67 308.218 276.89 308.17C274.223 308.17 271.557 308.13 268.89 308.05C266.814 308.073 264.742 307.868 262.71 307.44C260.474 306.83 258.348 305.872 256.41 304.6C248.94 299.98 242.8 292.94 240.17 284.6C239.84 283.54 239.61 282.27 240.34 281.44C241.058 280.854 241.963 280.545 242.89 280.57H243.01C245.16 280.29 247.231 279.579 249.1 278.48C250.311 277.86 251.286 276.864 251.88 275.64C252.285 274.19 252.254 272.652 251.79 271.22L249.57 261.14C249.339 259.526 248.733 257.988 247.8 256.65C248.45 256.88 249.1 257.09 249.8 257.27C255.98 258.94 262.74 257.93 268.8 260.12C271.12 260.97 273.44 262.5 274.14 264.88C275.31 268.88 271.4 273.03 272.52 277.03C273.27 279.75 276.04 281.32 278.52 282.59L280.19 283.44L284.82 285.79L285.46 286.11L285.56 286.16C287.02 286.9 288.56 287.82 289.07 289.39C289.288 290.506 289.183 291.661 288.77 292.72Z" fill="#E1C4B0"/>
<path opacity="0.1" d="M300.97 316.2C300.801 318.756 300.178 321.262 299.13 323.6C297.122 327.644 296.046 332.086 295.98 336.6C295.21 350.1 290.08 366.17 297.43 377.51C297.61 377.79 297.79 378.07 297.96 378.36C296.779 378.935 295.674 379.653 294.67 380.5C291.51 375.01 290.67 368.5 290.09 362.2C289.77 358.53 289.53 354.85 289.39 351.2C289.233 348.573 289.287 345.938 289.55 343.32C289.93 340.32 290.8 337.39 291.34 334.41C291.662 332.665 291.869 330.902 291.96 329.13C292.219 325.259 292.042 321.371 291.43 317.54C290.849 313.468 289.919 309.453 288.65 305.54C288.01 303.75 287.24 302.02 286.54 300.26L286.3 299.64C285.167 302.203 283.562 304.53 281.57 306.5C280.912 307.193 280.105 307.726 279.21 308.06C278.453 308.254 277.67 308.328 276.89 308.28C274.223 308.28 271.557 308.24 268.89 308.16C266.814 308.183 264.742 307.978 262.71 307.55C260.474 306.94 258.348 305.982 256.41 304.71C248.94 300.09 242.8 293.05 240.17 284.71C239.84 283.65 239.61 282.38 240.34 281.55C241.058 280.964 241.963 280.655 242.89 280.68H243.01L252.01 291.81C253.042 292.988 253.916 294.296 254.61 295.7C254.744 296.171 255.024 296.588 255.41 296.89C255.723 297.033 256.067 297.095 256.41 297.07C264.86 297.07 276.12 297.07 284.57 297.07C284.598 295.573 284.165 294.103 283.33 292.86C283.07 292.92 282.72 292.94 283.26 292.78C282.771 289.534 281.722 286.397 280.16 283.51C280.067 283.312 279.963 283.118 279.85 282.93C279.178 281.941 278.678 280.845 278.37 279.69C279.437 279.35 280.583 279.35 281.65 279.69C282.88 280.22 283.52 281.55 284.06 282.78C284.52 283.78 284.98 284.85 285.39 285.9C285.39 286.01 285.49 286.13 285.53 286.24C286.402 288.309 286.962 290.496 287.19 292.73C287.25 293.55 287.45 294.59 288.13 294.86C288.237 294.909 288.353 294.936 288.47 294.94C289.174 294.682 289.939 294.64 290.667 294.818C291.395 294.996 292.054 295.386 292.56 295.94C293.544 297.067 294.231 298.421 294.56 299.88C294.885 301.339 295.361 302.76 295.98 304.12C297.27 306.58 295.3 307.68 297.63 309.19C298.72 309.789 299.657 310.631 300.37 311.65C301.029 313.07 301.238 314.658 300.97 316.2Z" fill="black"/>
<path opacity="0.1" d="M242.89 629.77C243.36 632.07 243.89 634.35 244.45 636.63L244.39 636.77C239.82 634.77 235.14 632.68 230.15 632.24C225.52 631.84 220.49 633.09 217.34 636.45C217.296 635.717 217.199 634.989 217.05 634.27C216.747 633.447 216.783 632.537 217.15 631.74C218.57 629.15 222 628.63 224.64 628.43C230.756 627.969 236.907 628.421 242.89 629.77Z" fill="black"/>
<path opacity="0.1" d="M282.28 294.69C282.75 294.69 282.58 294.69 282.35 294.77C282.12 294.85 281.74 294.85 282.28 294.69Z" fill="black"/>
<path opacity="0.1" d="M304.01 616.81C299.55 619.652 295.36 622.896 291.49 626.5C290.366 627.703 289.026 628.683 287.54 629.39C286.005 629.884 284.383 630.051 282.78 629.88C276.489 629.625 270.219 629.004 264 628.02C263.58 627.836 263.222 627.535 262.967 627.155C262.712 626.774 262.571 626.328 262.56 625.87C262.64 624.6 263.96 623.87 265.12 623.32C275.41 618.87 286.59 616.94 297.69 615.39C298.819 615.202 299.919 614.865 300.96 614.39C302.21 613.89 302.34 614.71 302.96 615.63C303.269 616.058 303.621 616.454 304.01 616.81Z" fill="black"/>
<path d="M230.64 283.09C232.11 284.4 233.79 285.46 235.28 286.73C239.28 290.12 241.8 294.86 244.28 299.48C242.809 300.012 241.219 300.119 239.69 299.79C238.904 304.226 239.036 308.777 240.08 313.16C238.079 314.533 236.525 316.463 235.61 318.71C234.899 320.991 234.41 323.335 234.15 325.71C232.71 336.117 231.263 346.523 229.81 356.93C229.781 357.949 229.431 358.932 228.81 359.74C228.532 359.964 228.278 360.215 228.05 360.49C227.744 361.163 227.623 361.905 227.7 362.64C227.64 363.37 227.16 364.24 226.43 364.14C226.075 364.055 225.761 363.85 225.54 363.56C224.81 362.787 224.141 361.958 223.54 361.08C217.64 372.4 214.8 384.6 211.68 396.98C209.45 405.8 207.22 414.72 207.11 423.82C207.14 428.125 207.411 432.425 207.92 436.7L208.8 445.48C209.51 452.54 210.22 459.61 210.99 466.67C211.49 471.15 211.99 475.67 213.6 479.89C216 486.3 213.34 493.53 214.36 500.31C215.16 505.62 216.75 511.11 215.15 516.23C214.51 518.28 213.39 520.15 212.55 522.13C210.49 527.05 210.28 532.52 210.1 537.85C209.776 542.522 209.95 547.215 210.62 551.85C211.48 556.64 213.41 561.33 213.03 566.17C212.5 573.06 207.42 578.95 206.8 585.83C206.31 591.32 208.72 596.62 211.31 601.49C213.22 605.08 210.56 609.72 209.55 613.67C207.55 621.41 210.88 629.51 214.96 636.38C215.064 636.616 215.248 636.807 215.48 636.92C215.95 637.09 216.37 636.63 216.68 636.24C219.75 632.3 225.19 630.81 230.18 631.24C235.17 631.67 239.84 633.73 244.42 635.77L250.91 621.32C252.01 618.87 253.13 616.22 252.58 613.59C252.19 611.71 250.98 610.12 250.12 608.4C248.12 604.34 248.02 599.61 248 595.06L247.88 569.36C252.94 563 256.03 555.44 257.98 547.54C260.972 558.652 261.178 570.33 258.58 581.54C258.099 583.235 257.765 584.968 257.58 586.72C257.19 593.85 262.78 599.88 264.27 606.86C264.414 607.394 264.455 607.951 264.39 608.5C264.222 609.176 263.942 609.818 263.56 610.4C260.88 615.26 261.17 621.15 261.56 626.69C268.573 627.911 275.658 628.669 282.77 628.96C284.373 629.12 285.993 628.953 287.53 628.47C289.017 627.76 290.357 626.776 291.48 625.57C296.02 621.299 301.006 617.528 306.35 614.32C303.366 609.368 299.188 605.243 294.2 602.32C295.81 599.95 299.48 600.14 301.62 598.24C302.695 597.177 303.396 595.795 303.62 594.3C304.42 590.38 303.43 586.3 302.44 582.45C300.52 574.87 298.59 567.26 295.44 560.1C294.015 557.157 292.76 554.136 291.68 551.05C289.06 542.43 290.89 533.05 288.91 524.24C288.27 521.42 287.24 518.51 287.96 515.7C289.06 511.37 293.96 508.8 295.04 504.46C298.91 489.01 299.6 473 301.8 457.23C302.292 454.218 302.556 451.172 302.59 448.12C302.59 444.93 302.02 441.77 301.79 438.59C300.89 425.86 304.96 413.16 303.92 400.44C303.254 392.601 300.672 385.046 296.4 378.44C289.05 367.09 294.18 351.03 294.95 337.53C295.008 333.016 296.081 328.573 298.09 324.53C299.146 322.195 299.773 319.688 299.94 317.13C300.248 315.553 300.052 313.919 299.38 312.46C298.676 311.437 297.741 310.594 296.65 310C294.32 308.48 296.29 307.38 295 304.92C294.379 303.56 293.904 302.139 293.58 300.68C293.253 299.223 292.565 297.872 291.58 296.75C291.074 296.196 290.415 295.806 289.687 295.628C288.959 295.45 288.194 295.492 287.49 295.75C286.54 295.75 286.28 294.49 286.2 293.54C285.93 290.06 284.49 286.79 283.08 283.59C282.54 282.36 281.9 281.03 280.67 280.5C279.599 280.165 278.451 280.165 277.38 280.5C277.69 281.66 278.193 282.759 278.87 283.75C280.603 286.791 281.756 290.128 282.27 293.59C281.27 293.89 283.27 293.59 282.27 293.59C283.165 294.838 283.626 296.345 283.58 297.88C275.14 297.88 263.88 297.88 255.43 297.88C255.087 297.907 254.742 297.845 254.43 297.7C254.045 297.396 253.762 296.98 253.62 296.51C252.932 295.105 252.058 293.8 251.02 292.63L241.12 280.42C240.9 280.101 240.609 279.837 240.27 279.65C239.861 279.535 239.429 279.535 239.02 279.65C235.81 280.12 233.44 281.46 230.64 283.09Z" fill="#76A0B9"/>
<path opacity="0.1" d="M266.17 448.53C267.877 448.507 269.559 448.942 271.04 449.79C271.775 450.223 272.385 450.839 272.809 451.579C273.234 452.319 273.458 453.157 273.46 454.01C273.35 455.9 271.9 457.4 270.85 459.01C270.2 459.991 269.682 461.054 269.31 462.17C269.195 462.424 269.167 462.709 269.23 462.98C269.35 463.36 269.76 463.55 270.11 463.72C271.382 464.295 272.469 465.214 273.248 466.373C274.027 467.532 274.467 468.885 274.52 470.28C274.43 474.18 270.62 477.34 270.83 481.28C270.925 482.1 271.066 482.915 271.25 483.72C271.707 487.078 271.241 490.497 269.9 493.61C268.69 496.75 267.04 499.7 265.74 502.81C262.23 511.26 261.47 520.62 261.74 529.81C261.95 536.05 259.74 541.99 257.74 547.93C258.87 535.965 259.171 523.936 258.64 511.93C258.5 508.67 258.09 505.59 258.24 502.32C258.48 497.13 261.38 492.41 262.12 487.32C262.54 484.41 262.26 481.45 262.33 478.51C262.47 472.51 264.1 466.59 264.21 460.57C264.35 456.32 263.96 451.94 266.17 448.53Z" fill="black"/>
<path d="M224.44 285.23C222.452 286.221 220.592 287.45 218.9 288.89C217.132 290.646 215.654 292.671 214.52 294.89C213.139 297.405 211.9 299.996 210.81 302.65C209.4 306.09 208.23 309.9 209.2 313.49C210.08 316.74 212.57 319.27 214.29 322.16C216.01 325.05 217.02 328.44 218.34 331.61C220.1 335.84 222.51 339.78 224.25 344.02C225.99 348.26 227.04 353.02 225.94 357.43C225.62 358.73 223.51 359.74 223.51 361.07C223.51 363.27 226.69 365.66 228.8 366.3C231.23 367.05 233.88 365.93 235.87 364.3C239.52 361.41 241.74 357.08 243.38 352.72C246.02 345.72 247.43 338.29 248.7 330.91C249.62 325.49 250.48 320.06 250.97 314.6C251.42 309.68 251.56 304.6 250.26 299.88C249.047 295.548 246.687 291.623 243.43 288.52C240.83 286.02 236.57 282.66 232.79 282.57C229.8 282.56 227 283.82 224.44 285.23Z" fill="#ACBA92"/>
<path d="M252.87 405.78C252.761 406.463 252.506 407.115 252.121 407.69C251.736 408.265 251.231 408.749 250.64 409.11C249.46 409.827 248.174 410.354 246.83 410.67C244.15 411.45 241.31 412.17 238.6 411.48C236.47 410.787 234.504 409.667 232.82 408.19L202.54 385.01C200.107 383.286 197.871 381.301 195.87 379.09C194.721 377.663 193.666 376.163 192.71 374.6C191.445 372.811 190.454 370.842 189.77 368.76C189.526 367.843 189.405 366.899 189.41 365.95C189.402 365.053 189.622 364.169 190.05 363.38C190.78 362.16 192.34 361.91 193.62 361.57C197.916 360.459 202.375 360.121 206.79 360.57C207.178 360.551 207.561 360.659 207.882 360.878C208.203 361.096 208.445 361.413 208.57 361.78C209.24 363.01 209.82 364.29 210.42 365.57C211.341 367.752 212.541 369.806 213.99 371.68C215.386 373.198 216.872 374.63 218.44 375.97C221.64 378.97 224.26 382.57 227.67 385.33C231.62 388.52 236.42 390.43 240.92 392.78C245.42 395.13 249.86 398.18 252.12 402.73C252.644 403.659 252.904 404.714 252.87 405.78Z" fill="#E1C4B0"/>
<path opacity="0.1" d="M287.92 244.06C287.921 250.374 285.51 256.449 281.181 261.044C276.851 265.639 270.93 268.407 264.627 268.781C258.325 269.155 252.118 267.108 247.275 263.057C242.432 259.006 239.319 253.259 238.573 246.989C237.828 240.72 239.505 234.403 243.262 229.329C247.02 224.255 252.573 220.809 258.788 219.694C265.002 218.579 271.407 219.88 276.694 223.331C281.981 226.782 285.75 232.122 287.23 238.26C287.689 240.159 287.921 242.106 287.92 244.06Z" fill="black"/>
<path d="M287.92 243.06C287.921 249.374 285.51 255.449 281.181 260.044C276.851 264.639 270.93 267.407 264.627 267.781C258.325 268.155 252.118 266.108 247.275 262.057C242.432 258.006 239.319 252.259 238.573 245.989C237.828 239.72 239.505 233.403 243.262 228.329C247.02 223.255 252.573 219.809 258.788 218.694C265.002 217.579 271.407 218.88 276.694 222.331C281.981 225.782 285.75 231.122 287.23 237.26C287.689 239.159 287.921 241.106 287.92 243.06Z" fill="#E1C4B0"/>
<path opacity="0.1" d="M210.42 365.53C209.28 366.26 207.59 366.02 206.18 365.7C200.62 364.46 194.48 363.57 189.41 365.95C189.402 365.053 189.622 364.169 190.05 363.38C190.78 362.16 192.34 361.91 193.62 361.57C197.916 360.459 202.375 360.121 206.79 360.57C207.178 360.551 207.561 360.659 207.882 360.878C208.203 361.096 208.445 361.413 208.57 361.78C209.24 362.97 209.82 364.25 210.42 365.53Z" fill="black"/>
<path d="M199.97 331.86C198.74 335.86 197.73 339.97 195.32 343.36C194.523 344.251 193.924 345.301 193.56 346.44C193.533 347.281 193.395 348.115 193.15 348.92C192.81 349.6 192.09 350.05 191.8 350.75C191.37 351.75 191.93 353.04 191.36 353.98C191.093 354.357 190.773 354.694 190.41 354.98C189.05 356.24 188.71 358.25 188.68 360.11C188.65 361.97 188.83 363.87 188.22 365.62C193.5 362.47 200.22 363.41 206.22 364.75C207.89 365.12 209.96 365.4 211.04 364.06C212.12 362.72 211.5 360.96 211.65 359.35C211.85 357.25 213.29 355.51 214.18 353.6C215.18 351.45 215.52 349.05 216.29 346.81C217.88 342.1 221.29 338.26 223.48 333.81C224.291 332.28 224.774 330.597 224.9 328.87C224.824 326.631 224.24 324.439 223.19 322.46C221.109 317.852 218.633 313.432 215.79 309.25C214.52 307.38 212.33 303.92 210.36 306.91C208.76 309.32 207.76 312.39 206.58 315.03C204.037 320.501 201.83 326.121 199.97 331.86Z" fill="#ABBA92"/>
<path d="M290.2 293.04C287.197 293.247 284.187 292.781 281.387 291.675C278.588 290.569 276.071 288.853 274.02 286.65C273.675 286.336 273.425 285.93 273.3 285.48C273.243 284.895 273.407 284.31 273.76 283.84C274.96 281.99 277.03 280.77 277.99 278.78C278.95 276.79 278.62 274.5 278.71 272.32C278.87 268.41 280.41 264.54 280.54 260.69C280.586 259.705 280.512 258.717 280.32 257.75C279.86 256.313 279.578 254.825 279.48 253.32C279.61 250.39 282.25 248.11 282.69 245.22C283.26 241.54 280.21 238.34 277.14 236.22C274.799 234.596 272.258 233.282 269.58 232.31C267.935 231.721 266.232 231.309 264.5 231.08C261.271 230.644 257.983 231.011 254.93 232.15C253.666 232.627 252.47 233.266 251.37 234.05C250.715 234.464 250.17 235.03 249.78 235.7C249.459 236.454 249.316 237.272 249.36 238.09C249.3 242.18 249.76 246.53 247.81 250.09C246.81 252 245.11 253.55 244.28 255.57C243.94 256.41 243.728 257.297 243.65 258.2C243.55 259.137 243.5 260.078 243.5 261.02C243.44 266.29 243.5 271.85 246.18 276.42C247.126 277.802 247.984 279.241 248.75 280.73C249.121 281.483 249.293 282.319 249.25 283.158C249.206 283.996 248.948 284.81 248.5 285.52C247.959 286.168 247.274 286.682 246.5 287.02C244.515 287.973 242.354 288.505 240.153 288.585C237.952 288.664 235.759 288.288 233.71 287.48C236.106 285.21 237.752 282.262 238.427 279.031C239.103 275.8 238.776 272.44 237.49 269.4C236.768 268.172 236.298 266.812 236.11 265.4C236.21 264.128 236.55 262.886 237.11 261.74C238.481 257.982 238.693 253.9 237.72 250.02C237.11 247.64 236.05 245.34 235.86 242.89C235.701 241.041 235.782 239.179 236.1 237.35C236.648 234.078 238.09 231.022 240.265 228.518C242.441 226.013 245.267 224.159 248.43 223.16C248.94 222.99 249.43 222.83 249.99 222.69C252.416 222.151 254.895 221.886 257.38 221.9C262.93 221.72 268.56 221.56 273.91 223.01C277.051 223.832 279.973 225.334 282.47 227.41C284.242 228.9 285.657 230.769 286.61 232.88C287.13 234.096 287.523 235.363 287.78 236.66C288.01 237.73 288.18 238.81 288.35 239.89C289.56 247.58 290.77 255.42 289.48 263.1C288.97 266.1 288.08 269.1 287.68 272.16C286.71 279.21 288.46 286.22 290.2 293.04Z" fill="#464353"/>
<path d="M254.67 302.92C255.697 302.92 256.53 302.087 256.53 301.06C256.53 300.033 255.697 299.2 254.67 299.2C253.643 299.2 252.81 300.033 252.81 301.06C252.81 302.087 253.643 302.92 254.67 302.92Z" fill="#8F8F8F"/>
<path d="M286.06 302.04C287.087 302.04 287.92 301.207 287.92 300.18C287.92 299.153 287.087 298.32 286.06 298.32C285.033 298.32 284.2 299.153 284.2 300.18C284.2 301.207 285.033 302.04 286.06 302.04Z" fill="#8F8F8F"/>
<path opacity="0.1" d="M254.67 207.06L250.67 199.51C250.924 199.208 251.201 198.927 251.5 198.67C252.078 198.314 252.754 198.153 253.43 198.21L254.67 207.06Z" fill="black"/>
<path opacity="0.1" d="M265.7 197.86L261.17 204.56L258.59 197.21C259.691 196.737 260.882 196.512 262.08 196.55C263.351 196.782 264.575 197.225 265.7 197.86Z" fill="black"/>
<g opacity="0.1">
<path opacity="0.1" d="M248.5 283.54C247.959 284.188 247.274 284.702 246.5 285.04C242.954 286.737 238.909 287.075 235.13 285.99C234.691 286.524 234.216 287.029 233.71 287.5C235.759 288.308 237.952 288.684 240.153 288.605C242.354 288.525 244.515 287.993 246.5 287.04C247.274 286.702 247.959 286.188 248.5 285.54C248.844 285.041 249.079 284.475 249.189 283.878C249.299 283.282 249.283 282.669 249.14 282.08C249.04 282.609 248.821 283.108 248.5 283.54Z" fill="black"/>
<path opacity="0.1" d="M237.65 250.05C237.977 251.36 238.168 252.701 238.22 254.05C238.335 252.033 238.143 250.01 237.65 248.05C237.04 245.67 235.98 243.37 235.79 240.92C235.79 240.61 235.79 240.3 235.74 239.98C235.692 240.96 235.709 241.942 235.79 242.92C235.98 245.37 237.04 247.67 237.65 250.05Z" fill="black"/>
<path opacity="0.1" d="M289.41 263.13C289.834 260.485 290.015 257.808 289.95 255.13C289.915 257.14 289.734 259.146 289.41 261.13C288.9 264.13 288.01 267.13 287.61 270.19C287.404 271.831 287.327 273.487 287.38 275.14C287.407 274.153 287.484 273.169 287.61 272.19C288.01 269.13 288.9 266.16 289.41 263.13Z" fill="black"/>
<path opacity="0.1" d="M237.45 267.42C236.926 266.435 236.504 265.4 236.19 264.33C236.105 264.69 236.065 265.06 236.07 265.43C236.258 266.842 236.728 268.202 237.45 269.43C238.184 271.106 238.608 272.902 238.7 274.73C238.881 272.228 238.452 269.72 237.45 267.42Z" fill="black"/>
<path opacity="0.1" d="M280.32 257.71C280.408 258.166 280.471 258.627 280.51 259.09C280.51 258.94 280.51 258.8 280.51 258.65C280.556 257.665 280.482 256.677 280.29 255.71C280.07 254.66 279.71 253.62 279.54 252.56C279.49 252.797 279.46 253.038 279.45 253.28C279.557 254.787 279.85 256.275 280.32 257.71Z" fill="black"/>
<path opacity="0.1" d="M274.02 284.61C273.866 284.449 273.722 284.279 273.59 284.1C273.344 284.501 273.242 284.973 273.3 285.44C273.425 285.89 273.675 286.296 274.02 286.61C276.071 288.813 278.588 290.529 281.387 291.635C284.187 292.741 287.197 293.207 290.2 293C290.03 292.34 289.86 291.69 289.7 291C286.78 291.134 283.865 290.632 281.157 289.529C278.45 288.426 276.015 286.747 274.02 284.61Z" fill="black"/>
<path opacity="0.1" d="M282.67 243.32C282.665 243.283 282.665 243.247 282.67 243.21C283.24 239.53 280.19 236.33 277.12 234.21C274.779 232.586 272.238 231.272 269.56 230.3C267.915 229.711 266.212 229.299 264.48 229.07C261.251 228.634 257.963 229.001 254.91 230.14C253.646 230.617 252.45 231.255 251.35 232.04C250.695 232.454 250.15 233.02 249.76 233.69C249.439 234.444 249.296 235.262 249.34 236.08C249.34 236.77 249.34 237.46 249.34 238.16V238.08C249.296 237.262 249.439 236.444 249.76 235.69C250.15 235.02 250.695 234.454 251.35 234.04C252.45 233.255 253.646 232.617 254.91 232.14C257.963 231.001 261.251 230.634 264.48 231.07C266.212 231.299 267.915 231.711 269.56 232.3C272.238 233.272 274.779 234.586 277.12 236.21C279.67 237.93 282.18 240.41 282.67 243.32Z" fill="black"/>
<path opacity="0.1" d="M247.81 248.11C246.81 250.02 245.11 251.57 244.28 253.59C243.94 254.43 243.728 255.317 243.65 256.22C243.55 257.157 243.5 258.098 243.5 259.04C243.5 259.89 243.5 260.75 243.5 261.61C243.5 261.42 243.5 261.23 243.5 261.04C243.5 260.098 243.55 259.157 243.65 258.22C243.728 257.317 243.94 256.43 244.28 255.59C245.11 253.59 246.77 252.02 247.81 250.11C249.42 247.11 249.39 243.66 249.36 240.23C249.493 242.944 248.961 245.649 247.81 248.11Z" fill="black"/>
</g>
<path opacity="0.1" d="M287.71 236.73C287.572 236.926 287.411 237.104 287.23 237.26C286.877 237.55 286.483 237.786 286.06 237.96C283.15 239.22 283.27 235.11 281.75 233.7C280.775 232.981 279.579 232.627 278.37 232.7C275.443 232.553 272.513 232.423 269.58 232.31C264.69 232.13 259.81 232.04 254.93 232.15C252.59 232.19 250.257 232.287 247.93 232.44C245.23 232.62 242.33 232.97 240.03 234.25C239.243 234.683 238.53 235.24 237.92 235.9C237.37 236.5 236.79 237.26 236.03 237.4C236.578 234.128 238.02 231.072 240.195 228.568C242.371 226.063 245.197 224.209 248.36 223.21C253.481 219.396 259.878 217.708 266.214 218.5C272.551 219.292 278.335 222.502 282.36 227.46C284.132 228.95 285.547 230.819 286.5 232.93C287.036 234.151 287.441 235.424 287.71 236.73Z" fill="black"/>
<path d="M286.06 235.96C283.15 237.22 283.27 233.11 281.75 231.7C280.775 230.981 279.579 230.627 278.37 230.7C268.237 230.033 258.073 229.947 247.93 230.44C244.32 230.68 240.36 231.22 237.93 233.9C237.31 234.58 236.66 235.46 235.73 235.43C235.42 233.43 235.2 231.35 235.05 229.3C234.959 228.532 235 227.754 235.17 227C235.42 226.14 235.99 225.41 236.28 224.57C236.565 223.502 236.667 222.392 236.58 221.29C236.624 217.21 237.72 213.211 239.763 209.679C241.806 206.147 244.726 203.202 248.24 201.13C249.122 200.699 249.94 200.147 250.67 199.49C250.924 199.188 251.201 198.907 251.5 198.65C252.078 198.294 252.754 198.133 253.43 198.19C253.91 198.19 254.43 198.19 254.85 198.19C256.143 198.048 257.408 197.71 258.6 197.19C259.701 196.717 260.892 196.492 262.09 196.53C263.361 196.762 264.585 197.205 265.71 197.84C266.251 198.101 266.817 198.305 267.4 198.45C268.31 198.66 269.25 198.65 270.16 198.83C271.634 199.205 273.034 199.827 274.3 200.67C275.811 201.485 277.21 202.493 278.46 203.67C279.82 205.224 280.908 206.995 281.68 208.91C283.004 211.555 284.011 214.348 284.68 217.23C285.49 221.37 285.09 225.85 287.01 229.61C288.18 231.97 289.25 234.59 286.06 235.96Z" fill="#EAC956"/>
<path opacity="0.2" d="M235.37 232.82C235.37 232.82 256.1 213.96 286.97 229.6C286.97 229.6 252.12 221.67 235.37 232.82Z" fill="black"/>
<path d="M9.48998 329.19C6.66998 324.57 2.42998 320.34 3.08998 315.1C10.85 315.99 18.21 314.1 25.32 310.81C32.43 307.52 39.03 303.25 45.69 299.06C48.31 297.41 50.92 295.79 53.52 294.29C57.64 291.93 61.73 289.29 65.92 286.98C71.92 283.68 78.04 280.98 84.78 280.46C86.0008 280.365 87.2259 280.335 88.45 280.37C96.75 280.53 105.35 282.76 112.65 279.04L113.1 278.8C117.24 276.53 120.25 272.67 123.8 269.54C126.352 267.333 129.131 265.402 132.09 263.78C137.48 260.78 143.32 258.38 148.83 255.55C150.24 254.824 151.58 253.966 152.83 252.99L153.77 252.24L153.98 252.06C154.21 251.87 154.44 251.68 154.66 251.48L155.09 251.1L155.53 250.7L155.87 250.38L156.42 249.86L156.48 249.79L157.35 248.93L157.7 248.58L158.31 247.95L158.67 247.59C159.28 246.96 159.89 246.32 160.51 245.7C161.13 245.08 161.97 244.24 162.72 243.55L163.44 242.91L163.65 242.73L164.23 242.25L164.5 242.02L165.07 241.58L165.35 241.36C165.63 241.15 165.92 240.95 166.21 240.75C166.477 240.565 166.758 240.401 167.05 240.26L165.18 235.73L170.56 233.51L244.76 413.56L239.37 415.78L196.93 312.78L196.63 313.08C186.799 322.781 174.756 329.947 161.54 333.96H161.46C154.07 336.19 145.8 337.77 139.58 341.91C137.374 343.344 135.458 345.179 133.93 347.32C132.47 349.4 131.45 351.77 129.93 353.77C129.64 354.14 129.32 354.5 129 354.84C127.181 356.643 125.169 358.239 123 359.6L122.05 360.25C115.607 364.783 108.895 368.921 101.95 372.64C97.9424 374.726 93.7638 376.466 89.46 377.84C86.33 378.84 83.1 379.57 79.97 380.56C77.8645 381.198 75.8198 382.021 73.86 383.02C68.56 385.79 64.49 390.13 60.64 394.76C57.27 398.82 54.07 403.12 50.37 406.82C48.05 409.12 44.52 411.3 41.72 409.95L41.15 409.62C41.24 409.47 41.31 409.32 41.39 409.16C43.6 404.53 40.88 398.81 37.22 395.1C36.84 394.71 36.45 394.33 36.05 393.97C35.65 393.61 34.93 392.97 34.36 392.47C31.23 389.78 27.9 387.28 25.73 383.81C24.0737 380.895 22.9495 377.709 22.41 374.4C21.41 369.69 20.74 364.84 18.18 360.83C16.5 358.18 14 355.92 12.18 353.38C11.0295 351.877 10.2732 350.11 9.97998 348.24C9.56998 344.99 11.08 341.81 11.65 338.57C11.8196 337.687 11.89 336.788 11.86 335.89C11.6511 333.492 10.8355 331.186 9.48998 329.19Z" fill="url(#paint0_linear)"/>
<path d="M237.484 414.235L242.782 412.051L169.818 235.028L164.521 237.212L237.484 414.235Z" fill="#9B9DA9"/>
<path d="M12.97 360.2C15.48 364.15 16.15 368.91 17.12 373.54C17.658 376.795 18.7649 379.929 20.39 382.8C22.53 386.21 25.8 388.67 28.87 391.31C29.43 391.8 29.99 392.31 30.53 392.79C30.92 393.14 31.31 393.52 31.68 393.89C35.28 397.54 37.95 403.17 35.78 407.72C35.7134 407.875 35.6366 408.025 35.55 408.17C35.7257 408.289 35.9095 408.396 36.1 408.49C38.86 409.83 42.33 407.69 44.61 405.42C48.25 401.78 51.4 397.56 54.71 393.57C58.49 389.01 62.5 384.74 67.71 382.02C69.6333 381.035 71.6414 380.225 73.71 379.6C76.78 378.6 79.96 377.89 83.04 376.93C87.2705 375.577 91.3786 373.868 95.32 371.82C102.16 368.159 108.772 364.089 115.12 359.63L116.06 358.99C118.192 357.654 120.17 356.088 121.96 354.32C122.28 353.98 122.59 353.63 122.88 353.26C124.42 351.26 125.43 348.97 126.88 346.92C128.384 344.814 130.27 343.009 132.44 341.6C138.56 337.53 146.68 335.97 153.95 333.78H154.03C167.021 329.828 178.86 322.783 188.53 313.25C189.331 312.581 189.931 311.701 190.26 310.71C190.57 309.3 189.81 307.9 189.08 306.66C188.23 305.2 187.4 303.74 186.58 302.26C182.892 295.548 179.6 288.626 176.72 281.53C176.09 279.97 175.48 278.42 174.89 276.85C173.377 272.85 171.997 268.793 170.75 264.68C170.34 263.32 169.94 261.95 169.56 260.58C169.49 260.32 169.41 260.04 169.34 259.74C167.68 253.07 165.46 237.46 158.62 242.13C156.586 243.584 154.694 245.228 152.97 247.04C151.64 248.39 150.34 249.78 148.97 251.12C147.854 252.217 146.676 253.249 145.44 254.21C144.186 255.17 142.847 256.014 141.44 256.73C136.01 259.51 130.27 261.84 124.98 264.82C122.067 266.412 119.332 268.309 116.82 270.48C113.33 273.56 110.37 277.36 106.3 279.59L105.86 279.83C98.68 283.48 90.23 281.29 82.06 281.13C80.8593 281.1 79.6578 281.13 78.46 281.22C71.83 281.72 65.77 284.38 59.91 287.63C55.79 289.91 51.77 292.49 47.72 294.82C45.16 296.29 42.6 297.88 40.02 299.51C33.48 303.63 26.85 307.95 20.02 311.07C13.02 314.25 5.79003 316.15 -1.83997 315.28C-2.48997 320.43 1.67003 324.59 4.45003 329.13C5.78525 331.082 6.59464 333.344 6.80003 335.7C6.83677 336.581 6.77303 337.463 6.61002 338.33C6.05002 341.52 4.61002 344.64 4.97002 347.85C5.25379 349.68 5.99312 351.41 7.12003 352.88C8.86003 355.37 11.31 357.6 12.97 360.2Z" fill="#86BC25"/>
<path d="M223.28 381.03C223.28 381.03 232.04 388.67 240.92 392.74C249.8 396.81 243.92 411.41 243.92 411.41C243.92 411.41 234.51 413.57 227.92 404.41C221.33 395.25 223.28 381.03 223.28 381.03Z" fill="#E1C4AF"/>
<path d="M695.32 511.08C695.32 511.08 672.12 541.61 652.87 541.86C633.62 542.11 622.32 554.72 631.46 562.6C640.6 570.48 740.2 558.1 740.2 558.1C740.2 558.1 741.14 520.58 732.51 515.1C723.88 509.62 695.32 511.08 695.32 511.08Z" fill="#444176"/>
<path d="M944.77 547.73C944.77 547.73 948.32 571.91 937.35 588.4C926.38 604.89 957.17 611.25 957.17 611.25C957.17 611.25 979.54 617.48 981.17 595.38C982.8 573.28 982.27 556.38 980.17 554.58C978.07 552.78 976.32 540.35 976.32 540.35L944.77 547.73Z" fill="#444176"/>
<path d="M593.57 593.4C593.57 593.4 592.76 515.19 670.15 483.4L688.12 449.21L696.74 428.21C699.861 420.604 704.772 413.864 711.055 408.561C717.338 403.258 724.808 399.549 732.83 397.75L746.77 394.62L751.08 376.46C753.376 366.753 758.464 357.931 765.717 351.082C772.969 344.233 782.068 339.658 791.89 337.92C800.367 336.346 808.968 335.543 817.59 335.52C821.405 335.577 825.14 336.621 828.432 338.548C831.725 340.476 834.462 343.222 836.38 346.52C836.38 346.52 909.7 345.71 912.95 385.63C912.95 385.63 920.29 422.28 930.88 428.8C930.88 428.8 948.8 424.73 966.72 450.8L986.27 517.6C986.27 517.6 1037.59 565.66 1022.11 609.6C1022.11 609.6 1000.93 639.74 893.4 619.37C893.4 619.37 778.54 654.37 717.4 606.37C717.39 606.43 615.57 625.98 593.57 593.4Z" fill="#A8A8A8"/>
<path opacity="0.1" d="M644.89 581.18C644.89 581.18 661.19 558.37 660.37 542.07C659.55 525.77 664.21 486.07 664.21 486.07" stroke="black" stroke-miterlimit="10"/>
<path opacity="0.1" d="M704.36 520.08C704.36 520.08 720.65 489.94 719.02 473.65C719.02 473.65 736.13 442.65 749.16 445.13" stroke="black" stroke-miterlimit="10"/>
<path opacity="0.1" d="M793.97 434.54C793.97 434.54 838.77 418.25 841.22 405.22" stroke="black" stroke-miterlimit="10"/>
<path opacity="0.1" d="M810.26 472.02C810.26 472.02 857.51 450.84 857.51 445.13H881.12C881.12 445.13 915.34 489.94 911.27 509.49" stroke="black" stroke-miterlimit="10"/>
<path opacity="0.1" d="M865.66 504.6C865.66 504.6 820.04 501.34 803.74 514.38C787.44 527.42 758.12 533.93 758.12 533.93C758.12 533.93 741.01 570.59 734.49 577.1C727.97 583.61 717.38 606.43 717.38 606.43" stroke="black" stroke-miterlimit="10"/>
<path opacity="0.1" d="M865.66 547.78C865.66 547.78 870.54 564.88 877.06 574.66C883.58 584.44 893.35 619.46 893.35 619.46" stroke="black" stroke-miterlimit="10"/>
<path opacity="0.1" d="M942.23 597.47C942.23 597.47 952.57 626.24 961.66 626.52" stroke="black" stroke-miterlimit="10"/>
<path opacity="0.1" d="M874.5 473.98C874.5 473.98 901.36 481.24 912.59 498.83C923.82 516.42 958.12 532.37 958.12 532.37" stroke="black" stroke-miterlimit="10"/>
<path opacity="0.1" d="M886.02 387.32C886.02 387.32 886.02 424.79 896.61 424.79C907.2 424.79 930.83 428.86 930.83 428.86" stroke="black" stroke-miterlimit="10"/>
<path opacity="0.1" d="M834.12 342.82C834.12 342.82 831.41 407.55 817.56 424.31" stroke="black" stroke-miterlimit="10"/>
<g opacity="0.05">
<path opacity="0.05" d="M984.59 516.82L965.04 450.02C947.12 423.95 929.2 428.02 929.2 428.02C918.61 421.5 911.28 384.84 911.28 384.84C908.02 344.92 834.7 345.74 834.7 345.74C832.779 342.436 830.035 339.686 826.735 337.758C823.435 335.83 819.692 334.791 815.87 334.74C812.41 334.74 808.87 334.85 805.33 335.14C807.33 335.34 809.247 335.623 811.08 335.99L816.78 345.77C816.78 345.77 890.09 344.95 893.35 384.87C893.35 384.87 900.69 421.53 911.28 428.05C911.28 428.05 929.2 423.97 947.12 450.05L966.67 516.85C966.67 516.85 1017.99 564.91 1002.51 608.85C1002.51 608.85 992.06 623.72 948.59 625.52C1007.2 627.67 1020.43 608.85 1020.43 608.85C1035.91 564.88 984.59 516.82 984.59 516.82Z" fill="black"/>
<path opacity="0.05" d="M697.84 605.61C680.596 608.713 663.157 610.621 645.65 611.32C666.06 612.1 687.29 609.89 700.97 608.01C699.91 607.2 698.87 606.42 697.84 605.61Z" fill="black"/>
<path opacity="0.05" d="M873.8 618.65C848.721 625.684 822.906 629.765 796.88 630.81C834.43 632.17 870 624.34 884.66 620.58C881.12 619.99 877.53 619.32 873.8 618.65Z" fill="black"/>
</g>
<path d="M222.85 745.71C222.85 745.71 245.26 745.02 252.01 740.21C258.76 735.4 286.47 729.66 288.15 737.37C289.83 745.08 321.82 775.72 296.52 775.93C271.22 776.14 237.75 771.99 231.01 767.88C224.27 763.77 222.85 745.71 222.85 745.71Z" fill="#A8A8A8"/>
<path opacity="0.2" d="M296.98 773.24C271.68 773.45 238.2 769.3 231.46 765.24C226.33 762.11 224.28 750.89 223.6 745.72H222.85C222.85 745.72 224.27 763.79 231.01 767.89C237.75 771.99 271.23 776.14 296.52 775.94C303.83 775.88 306.35 773.28 306.21 769.43C305.2 771.75 302.41 773.2 296.98 773.24Z" fill="black"/>
<path d="M769.19 689.51C769.19 689.51 742.8 684.23 735.77 677.19C728.74 670.15 697.07 657.85 693.55 666.64C690.03 675.43 646.06 705.34 675.96 710.64C705.86 715.94 746.32 717.64 755.12 714.16C763.92 710.68 769.19 689.51 769.19 689.51Z" fill="#A8A8A8"/>
<path opacity="0.2" d="M675.96 707.32C705.87 712.59 746.32 714.32 755.12 710.83C761.81 708.15 766.47 695.28 768.31 689.29L769.19 689.48C769.19 689.48 763.91 710.58 755.12 714.1C746.33 717.62 705.87 715.86 675.96 710.58C667.33 709.06 664.86 705.48 665.79 700.96C666.53 703.94 669.54 706.21 675.96 707.32Z" fill="black"/>
<path opacity="0.2" d="M516.5 114.85H510.22C511.387 114.85 512.506 114.386 513.331 113.561C514.156 112.736 514.62 111.617 514.62 110.45C514.62 109.283 514.156 108.164 513.331 107.339C512.506 106.514 511.387 106.05 510.22 106.05H459.34C458.173 106.05 457.054 106.514 456.229 107.339C455.404 108.164 454.94 109.283 454.94 110.45C454.94 111.617 455.404 112.736 456.229 113.561C457.054 114.386 458.173 114.85 459.34 114.85H465.62C464.491 114.904 463.425 115.39 462.645 116.209C461.865 117.027 461.43 118.114 461.43 119.245C461.43 120.376 461.865 121.463 462.645 122.281C463.425 123.1 464.491 123.586 465.62 123.64H456.83C455.663 123.64 454.544 124.104 453.719 124.929C452.894 125.754 452.43 126.873 452.43 128.04C452.43 129.207 452.894 130.326 453.719 131.151C454.544 131.976 455.663 132.44 456.83 132.44H507.71C508.877 132.44 509.996 131.976 510.821 131.151C511.646 130.326 512.11 129.207 512.11 128.04C512.11 126.873 511.646 125.754 510.821 124.929C509.996 124.104 508.877 123.64 507.71 123.64H516.5C517.095 123.668 517.689 123.576 518.247 123.368C518.805 123.16 519.315 122.84 519.746 122.43C520.177 122.019 520.52 121.525 520.754 120.977C520.989 120.43 521.11 119.84 521.11 119.245C521.11 118.65 520.989 118.06 520.754 117.513C520.52 116.965 520.177 116.471 519.746 116.06C519.315 115.65 518.805 115.33 518.247 115.122C517.689 114.914 517.095 114.822 516.5 114.85Z" fill="#62B5E5"/>
<path opacity="0.2" d="M714.12 269.66H707.84C708.969 269.606 710.035 269.12 710.815 268.301C711.595 267.483 712.03 266.396 712.03 265.265C712.03 264.134 711.595 263.047 710.815 262.229C710.035 261.41 708.969 260.924 707.84 260.87H656.91C656.315 260.842 655.721 260.934 655.163 261.142C654.605 261.35 654.095 261.67 653.664 262.08C653.233 262.491 652.89 262.985 652.656 263.533C652.421 264.08 652.3 264.67 652.3 265.265C652.3 265.86 652.421 266.45 652.656 266.997C652.89 267.545 653.233 268.039 653.664 268.45C654.095 268.86 654.605 269.18 655.163 269.388C655.721 269.596 656.315 269.688 656.91 269.66H663.19C662.061 269.714 660.995 270.2 660.215 271.019C659.435 271.837 659 272.924 659 274.055C659 275.186 659.435 276.273 660.215 277.091C660.995 277.91 662.061 278.396 663.19 278.45H654.4C653.233 278.45 652.114 278.914 651.289 279.739C650.464 280.564 650 281.683 650 282.85C650 284.017 650.464 285.136 651.289 285.961C652.114 286.786 653.233 287.25 654.4 287.25H705.27C706.437 287.25 707.556 286.786 708.381 285.961C709.206 285.136 709.67 284.017 709.67 282.85C709.67 281.683 709.206 280.564 708.381 279.739C707.556 278.914 706.437 278.45 705.27 278.45H714.12C714.715 278.478 715.309 278.386 715.867 278.178C716.425 277.97 716.935 277.65 717.366 277.24C717.797 276.829 718.14 276.335 718.374 275.787C718.609 275.24 718.73 274.65 718.73 274.055C718.73 273.46 718.609 272.87 718.374 272.323C718.14 271.775 717.797 271.281 717.366 270.87C716.935 270.46 716.425 270.14 715.867 269.932C715.309 269.724 714.715 269.632 714.12 269.66Z" fill="#62B5E5"/>
<path opacity="0.2" d="M421.29 241.02H415.01C415.605 241.048 416.199 240.956 416.757 240.748C417.315 240.54 417.825 240.22 418.256 239.81C418.687 239.399 419.03 238.905 419.264 238.357C419.499 237.81 419.62 237.22 419.62 236.625C419.62 236.03 419.499 235.44 419.264 234.893C419.03 234.345 418.687 233.851 418.256 233.44C417.825 233.03 417.315 232.71 416.757 232.502C416.199 232.294 415.605 232.202 415.01 232.23H364.12C363.525 232.202 362.931 232.294 362.373 232.502C361.815 232.71 361.305 233.03 360.874 233.44C360.443 233.851 360.1 234.345 359.866 234.893C359.631 235.44 359.51 236.03 359.51 236.625C359.51 237.22 359.631 237.81 359.866 238.357C360.1 238.905 360.443 239.399 360.874 239.81C361.305 240.22 361.815 240.54 362.373 240.748C362.931 240.956 363.525 241.048 364.12 241.02H370.4C369.805 240.992 369.211 241.084 368.653 241.292C368.095 241.5 367.585 241.82 367.154 242.23C366.723 242.641 366.38 243.135 366.146 243.683C365.911 244.23 365.79 244.82 365.79 245.415C365.79 246.01 365.911 246.6 366.146 247.147C366.38 247.695 366.723 248.189 367.154 248.6C367.585 249.01 368.095 249.33 368.653 249.538C369.211 249.746 369.805 249.838 370.4 249.81H361.6C360.433 249.81 359.314 250.274 358.489 251.099C357.664 251.924 357.2 253.043 357.2 254.21C357.2 255.377 357.664 256.496 358.489 257.321C359.314 258.146 360.433 258.61 361.6 258.61H412.48C413.647 258.61 414.766 258.146 415.591 257.321C416.416 256.496 416.88 255.377 416.88 254.21C416.88 253.043 416.416 251.924 415.591 251.099C414.766 250.274 413.647 249.81 412.48 249.81H421.27C421.865 249.838 422.459 249.746 423.017 249.538C423.575 249.33 424.085 249.01 424.516 248.6C424.947 248.189 425.29 247.695 425.524 247.147C425.759 246.6 425.88 246.01 425.88 245.415C425.88 244.82 425.759 244.23 425.524 243.683C425.29 243.135 424.947 242.641 424.516 242.23C424.085 241.82 423.575 241.5 423.017 241.292C422.459 241.084 421.865 240.992 421.27 241.02H421.29Z" fill="#62B5E5"/>
<path opacity="0.8" d="M405.73 699.37H568.87C570.447 699.362 571.995 698.945 573.363 698.161C574.732 697.378 575.874 696.253 576.679 694.897C577.485 693.542 577.925 692 577.959 690.424C577.992 688.847 577.617 687.289 576.87 685.9L495.34 534.42C494.559 532.968 493.399 531.754 491.983 530.909C490.567 530.063 488.949 529.616 487.3 529.616C485.651 529.616 484.033 530.063 482.617 530.909C481.201 531.754 480.041 532.968 479.26 534.42L397.69 685.9C396.941 687.292 396.566 688.854 396.602 690.434C396.637 692.014 397.081 693.558 397.891 694.914C398.701 696.271 399.849 697.395 401.223 698.176C402.597 698.957 404.15 699.368 405.73 699.37ZM497.68 671.69H476.92V650.94H497.68V671.69ZM497.68 637.1H476.92V595.59H497.68V637.1Z" fill="#86BC25"/>
</g>
<defs>
<linearGradient id="paint0_linear" x1="-725258" y1="65537.2" x2="-783713" y2="65537.2" gradientUnits="userSpaceOnUse">
<stop stop-color="#808080" stop-opacity="0.25"/>
<stop offset="0.54" stop-color="#808080" stop-opacity="0.12"/>
<stop offset="1" stop-color="#808080" stop-opacity="0.1"/>
</linearGradient>
<clipPath id="clip0">
<rect width="1032.24" height="832.63" fill="white"/>
</clipPath>
</defs>
</svg>
