<svg width="1109" height="1151" viewBox="0 0 1109 1151" fill="none" xmlns="http://www.w3.org/2000/svg">
<path d="M768.68 749.79L775.57 747.09C776.23 746.83 776.88 746.55 777.57 746.28C764.819 741.585 754.045 732.691 747.02 721.061C739.994 709.43 737.136 695.755 738.914 682.285C740.692 668.814 747 656.349 756.803 646.939C766.605 637.53 779.318 631.736 792.85 630.51L788.05 654.71L806.27 630.79H806.43C822.158 632.952 836.383 641.273 845.977 653.921C855.571 666.57 859.748 682.512 857.59 698.24C857.44 699.37 857.2 700.47 856.99 701.58C862.6 697.15 867.86 692.26 871.8 686.58C879.8 675.04 882.51 660.82 885.27 643.41C890.74 608.93 895.67 574.07 900.11 539.23C886.476 535.117 874.757 526.275 867.058 514.294C859.36 502.314 856.187 487.98 858.11 473.87C858.36 472.05 858.71 470.28 859.11 468.53C859.21 468.09 859.31 467.65 859.42 467.22C859.85 465.53 860.33 463.87 860.89 462.22C860.98 461.95 861.1 461.7 861.19 461.44C861.69 460.07 862.19 458.72 862.84 457.44C863.06 456.94 863.28 456.44 863.51 455.97C864.2 454.54 864.93 453.14 865.73 451.78C866 451.33 866.29 450.9 866.56 450.45C867.18 449.45 867.83 448.45 868.5 447.52C868.86 447.02 869.21 446.52 869.58 446.03L869.85 445.64C878.341 434.527 890.458 426.74 904.094 423.635C917.73 420.529 932.024 422.3 944.49 428.64L938.25 460.13L956.25 436.49C965.932 444.693 972.738 455.776 975.674 468.121C978.61 480.466 977.523 493.427 972.57 505.11H972.64C972.47 505.51 972.26 505.89 972.09 506.29C971.76 507.03 971.42 507.76 971.09 508.49C970.63 509.42 970.09 510.33 969.64 511.23C969.26 511.91 968.89 512.59 968.48 513.23C967.89 514.23 967.25 515.13 966.61 516.06C966.23 516.6 965.88 517.16 965.49 517.69C964.49 519.08 963.37 520.41 962.23 521.69C961.83 522.14 961.4 522.55 960.98 522.99C960.17 523.85 959.36 524.7 958.5 525.51C957.97 526.01 957.41 526.51 956.86 526.97C956.07 527.67 955.26 528.35 954.43 528.97C953.84 529.44 953.24 529.89 952.64 530.33C951.77 530.96 950.89 531.55 950 532.14C949.4 532.53 948.8 532.92 948.19 533.29C947.19 533.9 946.14 534.46 945.09 535.01C944.56 535.28 944.09 535.58 943.5 535.84C941.92 536.61 940.3 537.32 938.65 537.95C938.34 538.07 938.01 538.16 937.7 538.27C936.32 538.77 934.93 539.27 933.52 539.62C932.91 539.79 932.29 539.93 931.67 540.08C930.52 540.36 929.36 540.62 928.19 540.84C927.523 540.96 926.833 541.07 926.12 541.17C924.97 541.34 923.81 541.47 922.64 541.57C921.95 541.63 921.27 541.69 920.57 541.73C919.31 541.79 918.04 541.8 916.77 541.79C916.687 541.785 916.603 541.785 916.52 541.79C914.64 556.457 912.667 571.123 910.6 585.79C915.45 579.243 921.585 573.756 928.631 569.664C935.677 565.573 943.485 562.964 951.575 561.998C959.665 561.032 967.867 561.728 975.678 564.045C983.489 566.361 990.745 570.249 997 575.47L981.32 602.05L1006.53 585.46C1016.06 598.075 1020.2 613.958 1018.03 629.62C1017.29 635.119 1015.78 640.486 1013.53 645.56C1008.72 656.547 1000.71 665.834 990.558 672.215C980.402 678.596 968.562 681.778 956.576 681.347C944.589 680.916 933.008 676.891 923.337 669.797C913.666 662.702 906.35 652.864 902.34 641.56C902.11 643.04 901.89 644.56 901.66 646.02C899.22 661.37 896.19 680.48 885.43 696.02C878.14 706.58 868.1 714.38 858.34 721.24C851.993 725.707 845.5 729.963 838.86 734.01C831.89 740.473 823.482 745.183 814.33 747.75C803.663 753.21 792.767 758.147 781.64 762.56L774.69 765.28C768.44 767.72 762.04 770.22 755.69 772.88C756.69 772.97 757.69 773.05 758.69 773.18C771.273 774.908 782.981 780.59 792.123 789.407C801.265 798.224 807.368 809.718 809.55 822.23L767.24 845.34L809.42 843.45C807.731 852.803 803.814 861.612 798 869.13C788.462 881.476 774.482 889.612 759.036 891.805C743.589 893.997 727.897 890.074 715.3 880.87L717.4 884.78C718.8 887.36 720.18 889.93 721.52 892.48C739.85 927.22 741.18 957.22 725.27 976.97L712.27 966.52C727.76 947.3 715.47 916.75 706.77 900.25C705.45 897.75 704.09 895.25 702.77 892.69C691 870.86 677.65 846.12 683 819.79C691 780.09 734.05 763.29 768.68 749.79Z" fill="#E3E48D"/>
<path d="M270.6 938.01L265.22 935.9C264.7 935.7 264.22 935.47 263.68 935.27C273.635 931.599 282.044 924.651 287.527 915.568C293.01 906.484 295.241 895.806 293.852 885.287C292.463 874.769 287.537 865.036 279.884 857.687C272.231 850.338 262.306 845.811 251.74 844.85L255.49 863.75L241.27 845.07H241.14C235.054 845.901 229.191 847.923 223.887 851.021C218.582 854.118 213.94 858.231 210.226 863.123C206.511 868.015 203.797 873.591 202.238 879.532C200.679 885.474 200.306 891.664 201.14 897.75C201.26 898.64 201.45 899.49 201.61 900.36C197.198 897.043 193.302 893.09 190.05 888.63C183.82 879.63 181.68 868.51 179.52 854.92C175.29 827.99 171.45 800.77 168 773.59C178.644 770.372 187.791 763.464 193.797 754.107C199.804 744.75 202.276 733.557 200.77 722.54C200.57 721.12 200.3 719.74 199.98 718.37L199.74 717.37C199.4 716.05 199.03 714.75 198.59 713.49C198.52 713.28 198.43 713.08 198.35 712.88C197.96 711.81 197.53 710.76 197.07 709.73C196.89 709.35 196.72 708.96 196.54 708.58C196 707.47 195.43 706.38 194.81 705.32C194.6 704.96 194.37 704.62 194.16 704.32C193.67 703.54 193.16 702.77 192.64 702.03C192.36 701.64 192.09 701.24 191.8 700.86L191.59 700.56C184.959 691.882 175.499 685.799 164.852 683.366C154.205 680.933 143.042 682.303 133.3 687.24L138.18 711.84L124.11 693.38C116.549 699.787 111.235 708.442 108.941 718.083C106.647 727.723 107.495 737.845 111.36 746.97H111.31C111.44 747.28 111.6 747.58 111.74 747.89C112 748.47 112.26 749.04 112.54 749.61C112.9 750.33 113.28 751.04 113.68 751.74C113.97 752.28 114.26 752.81 114.58 753.33C115.04 754.08 115.58 754.81 116.04 755.54C116.34 755.96 116.61 756.4 116.92 756.81C117.72 757.89 118.57 758.93 119.46 759.94C119.77 760.29 120.11 760.61 120.46 760.94C121.09 761.61 121.73 762.27 122.4 762.94C122.81 763.34 123.25 763.71 123.68 764.08C124.3 764.633 124.93 765.163 125.57 765.67C126.03 766.03 126.5 766.38 126.97 766.73C127.65 767.22 128.34 767.73 129.03 768.14C129.5 768.45 129.97 768.75 130.45 769.04C131.24 769.52 132.05 769.95 132.87 770.38C133.29 770.6 133.69 770.83 134.11 771.04C135.35 771.64 136.61 772.19 137.9 772.68C138.14 772.78 138.4 772.84 138.64 772.93C139.71 773.32 140.8 773.68 141.91 773.99C142.38 774.12 142.91 774.23 143.35 774.34C144.25 774.56 145.15 774.77 146.07 774.94L147.68 775.2C148.58 775.33 149.49 775.43 150.4 775.51C150.94 775.56 151.47 775.6 152.02 775.63C153.02 775.68 154.02 775.69 155.02 775.68H155.21C156.677 787.16 158.217 798.63 159.83 810.09C156.049 804.969 151.262 800.676 145.762 797.472C140.262 794.268 134.165 792.223 127.846 791.46C121.527 790.698 115.119 791.235 109.015 793.039C102.911 794.843 97.2398 797.875 92.35 801.95L104.49 822.59L84.81 809.64C81.1186 814.516 78.4238 820.072 76.8796 825.99C75.3353 831.908 74.9719 838.072 75.81 844.13C76.3906 848.43 77.5791 852.625 79.34 856.59C83.099 865.17 89.3498 872.422 97.2813 877.406C105.213 882.389 114.459 884.874 123.82 884.537C133.181 884.201 142.225 881.059 149.779 875.519C157.332 869.98 163.046 862.298 166.18 853.47C166.36 854.62 166.53 855.79 166.71 856.95C168.61 868.95 170.98 883.87 179.38 896.03C185.08 904.27 192.92 910.36 200.54 915.72C205.5 919.213 210.57 922.547 215.75 925.72C221.196 930.767 227.763 934.448 234.91 936.46C243.23 940.72 251.75 944.6 260.45 948.02L265.87 950.15C270.75 952.05 275.75 954 280.68 956.08C279.9 956.15 279.11 956.21 278.32 956.32C268.498 957.666 259.357 962.098 252.218 968.977C245.079 975.855 240.31 984.825 238.6 994.59L271.6 1012.59L238.66 1011.12C240.11 1018.89 243.506 1026.17 248.529 1032.27C253.553 1038.37 260.042 1043.1 267.389 1046.02C274.736 1048.93 282.702 1049.94 290.543 1048.94C298.385 1047.95 305.846 1044.98 312.23 1040.32C311.68 1041.32 311.14 1042.32 310.59 1043.37C309.5 1045.37 308.42 1047.37 307.37 1049.37C293.06 1076.5 292.02 1099.94 304.45 1115.37L314.58 1107.21C302.48 1092.21 312.08 1068.34 318.88 1055.45C319.88 1053.5 320.97 1051.53 322.04 1049.55C331.23 1032.55 341.65 1013.18 337.5 992.61C331.29 961.67 297.64 948.59 270.6 938.01Z" fill="#E3E48D"/>
<path d="M555 1150.18C860.966 1150.18 1109 1139.66 1109 1126.68C1109 1113.7 860.966 1103.18 555 1103.18C249.034 1103.18 1 1113.7 1 1126.68C1 1139.66 249.034 1150.18 555 1150.18Z" fill="#909090"/>
<path opacity="0.3" d="M555 1150.18C860.966 1150.18 1109 1139.66 1109 1126.68C1109 1113.7 860.966 1103.18 555 1103.18C249.034 1103.18 1 1113.7 1 1126.68C1 1139.66 249.034 1150.18 555 1150.18Z" fill="black"/>
<path d="M555 1137.18C860.966 1137.18 1109 1126.66 1109 1113.68C1109 1100.7 860.966 1090.18 555 1090.18C249.034 1090.18 1 1100.7 1 1113.68C1 1126.66 249.034 1137.18 555 1137.18Z" fill="#919191"/>
<path d="M86 1105.32C83 1099.81 86.4 1093.06 90.28 1088.14C94.16 1083.22 98.89 1078.14 98.79 1071.85C98.65 1062.85 89.09 1057.54 81.46 1052.77C75.7987 1049.23 70.5758 1045.03 65.9 1040.26C63.9456 1038.42 62.3278 1036.26 61.12 1033.86C59.54 1030.34 59.59 1026.34 59.69 1022.48C60.0233 1009.64 60.6567 996.813 61.59 984" stroke="#3F3D56" stroke-width="4" stroke-miterlimit="10"/>
<path d="M47.11 983.29C47.218 980.941 47.9159 978.657 49.1393 976.649C50.3627 974.641 52.0722 972.973 54.11 971.8L57.25 978.01L57.16 970.49C58.6574 970.044 60.2194 969.855 61.78 969.93C64.5431 970.065 67.2041 971.016 69.4274 972.662C71.6506 974.308 73.3362 976.576 74.2716 979.18C75.2069 981.783 75.35 984.605 74.6828 987.29C74.0156 989.975 72.568 992.402 70.5227 994.264C68.4774 996.127 65.9261 997.342 63.1909 997.756C60.4557 998.17 57.6591 997.764 55.1543 996.59C52.6494 995.416 50.5486 993.526 49.1169 991.159C47.6852 988.792 46.9868 986.054 47.11 983.29Z" fill="#C4D600"/>
<path d="M72.14 1078.29C73.5346 1081.07 75.8128 1083.3 78.616 1084.64C81.4191 1085.98 84.5879 1086.35 87.6235 1085.69C90.659 1085.03 93.3889 1083.37 95.3834 1080.99C97.3778 1078.61 98.5235 1075.63 98.64 1072.53C98.7398 1070.59 98.4298 1068.65 97.73 1066.84C96.7241 1064.16 94.9206 1061.85 92.5626 1060.23C90.2047 1058.6 87.4056 1057.74 84.5427 1057.76C81.6799 1057.78 78.8908 1058.67 76.5516 1060.32C74.2123 1061.97 72.4353 1064.3 71.46 1066.99L80.23 1074.12L70.59 1071.88C70.5846 1074.11 71.1163 1076.31 72.14 1078.29Z" fill="#C4D600"/>
<path d="M79.07 1051.04C82.5672 1051.3 86.0363 1050.25 88.791 1048.08C91.5457 1045.91 93.3854 1042.78 93.9461 1039.32C94.5067 1035.86 93.7475 1032.31 91.8187 1029.38C89.8899 1026.45 86.9319 1024.35 83.53 1023.5L83.6 1029.29L80.42 1023C76.7003 1022.83 73.064 1024.14 70.311 1026.64C67.558 1029.15 65.9137 1032.65 65.74 1036.37C65.5663 1040.09 66.8773 1043.73 69.3847 1046.48C71.892 1049.23 75.3903 1050.88 79.11 1051.05L79.07 1051.04Z" fill="#C4D600"/>
<path d="M45 1028.37C46.8385 1028.46 48.6761 1028.18 50.4078 1027.56C52.1395 1026.93 53.7315 1025.97 55.0928 1024.74C56.4541 1023.5 57.5581 1022 58.3417 1020.34C59.1254 1018.67 59.5733 1016.87 59.66 1015.03C59.7467 1013.19 59.4704 1011.35 58.8469 1009.62C58.2234 1007.89 57.2649 1006.3 56.0262 1004.94C54.7875 1003.58 53.2927 1002.47 51.6273 1001.69C49.9619 1000.9 48.1585 1000.46 46.32 1000.37C43.6954 1000.24 41.0876 1000.86 38.8 1002.15L41.28 1008.95L36.17 1004.05C33.437 1006.55 31.8079 1010.04 31.64 1013.74C31.5722 1015.03 31.6935 1016.33 32 1017.59C32.698 1020.56 34.3452 1023.22 36.6915 1025.16C39.0378 1027.11 41.955 1028.23 45 1028.37Z" fill="#C4D600"/>
<path opacity="0.1" d="M49 987.03C52.24 987.39 55.39 988.4 58.64 988.6C61.89 988.8 65.46 988.02 67.52 985.5C68.63 984.13 69.18 982.41 70.11 980.93C71.0007 979.548 72.2161 978.405 73.65 977.6C74.4968 979.37 74.962 981.298 75.0156 983.26C75.0691 985.221 74.7097 987.172 73.9607 988.986C73.2117 990.799 72.0898 992.435 70.6679 993.787C69.2459 995.139 67.5556 996.178 65.7065 996.834C63.8575 997.491 61.8911 997.752 59.9348 997.6C57.9785 997.447 56.0761 996.886 54.3509 995.951C52.6257 995.016 51.1163 993.729 49.9206 992.173C48.7248 990.617 47.8695 988.828 47.41 986.92C47.94 986.94 48.47 986.98 49 987.03Z" fill="black"/>
<path opacity="0.1" d="M45 1028.37C47.4205 1028.49 49.8314 1027.99 51.9969 1026.9C54.1623 1025.81 56.0081 1024.18 57.3537 1022.16C58.6992 1020.14 59.4984 1017.81 59.673 1015.4C59.8477 1012.98 59.3918 1010.56 58.35 1008.37C57.2359 1009.12 56.2783 1010.08 55.53 1011.2C54.53 1012.71 53.92 1014.45 52.75 1015.84C50.56 1018.41 46.83 1019.25 43.44 1019.09C40.05 1018.93 36.78 1017.98 33.44 1017.67C32.97 1017.67 32.5 1017.59 32.03 1017.58C32.7247 1020.54 34.3666 1023.2 36.7071 1025.15C39.0475 1027.1 41.9589 1028.23 45 1028.37Z" fill="black"/>
<path opacity="0.1" d="M79.07 1051.04C81.4688 1051.16 83.859 1050.67 86.0107 1049.6C88.1623 1048.53 90.0031 1046.93 91.3561 1044.94C92.709 1042.96 93.5285 1040.66 93.7359 1038.27C93.9432 1035.87 93.5314 1033.47 92.54 1031.28C91.3739 1032.04 90.3571 1033 89.54 1034.13C88.45 1035.67 87.77 1037.44 86.54 1038.86C84.18 1041.5 80.2 1042.43 76.61 1042.34C73.02 1042.25 69.79 1041.41 66.33 1041.15C67.1745 1043.91 68.8521 1046.34 71.1328 1048.11C73.4135 1049.88 76.1858 1050.91 79.07 1051.04Z" fill="black"/>
<path opacity="0.1" d="M72.14 1078.29C73.5346 1081.07 75.8128 1083.3 78.616 1084.64C81.4191 1085.98 84.5879 1086.35 87.6234 1085.69C90.659 1085.03 93.3889 1083.37 95.3834 1080.99C97.3778 1078.61 98.5235 1075.63 98.64 1072.53C98.7398 1070.59 98.4298 1068.65 97.73 1066.84C96.5737 1067.6 95.5358 1068.52 94.65 1069.58C93.31 1071.21 92.44 1073.05 90.89 1074.58C88.02 1077.4 83.39 1078.58 79.27 1078.67C76.888 1078.68 74.5075 1078.55 72.14 1078.29Z" fill="black"/>
<path d="M107.19 1098.98C107.19 1098.98 96.11 1098.64 92.78 1096.26C89.45 1093.88 75.78 1091.04 74.91 1094.86C74.04 1098.68 58.26 1113.86 70.77 1113.92C83.28 1113.98 99.83 1111.92 103.16 1109.92C106.49 1107.92 107.19 1098.98 107.19 1098.98Z" fill="#656380"/>
<path opacity="0.2" d="M70.54 1112.59C83.05 1112.69 99.6 1110.59 102.94 1108.59C105.47 1107.05 106.48 1101.5 106.82 1098.94H107.19C107.19 1098.94 106.49 1107.87 103.19 1109.94C99.89 1112.01 83.3 1114.02 70.8 1113.94C67.19 1113.94 65.94 1112.63 66.01 1110.72C66.48 1111.85 67.86 1112.59 70.54 1112.59Z" fill="black"/>
<path d="M1056 1114.32C1053 1108.81 1056.4 1102.06 1060.28 1097.14C1064.16 1092.22 1068.89 1087.14 1068.79 1080.85C1068.65 1071.85 1059.09 1066.54 1051.46 1061.77C1045.8 1058.23 1040.58 1054.03 1035.9 1049.26C1033.95 1047.42 1032.33 1045.26 1031.12 1042.86C1029.54 1039.34 1029.59 1035.34 1029.69 1031.48C1030.02 1018.64 1030.65 1005.81 1031.59 993" stroke="#3F3D56" stroke-width="4" stroke-miterlimit="10"/>
<path d="M1017.11 992.29C1017.22 989.941 1017.92 987.657 1019.14 985.649C1020.36 983.641 1022.07 981.973 1024.11 980.8L1027.25 987.01L1027.16 979.49C1028.66 979.044 1030.22 978.855 1031.78 978.93C1034.54 979.067 1037.2 980.019 1039.42 981.667C1041.65 983.314 1043.33 985.583 1044.26 988.186C1045.2 990.79 1045.34 993.611 1044.67 996.295C1044 998.979 1042.55 1001.41 1040.51 1003.27C1038.46 1005.13 1035.91 1006.34 1033.18 1006.76C1030.44 1007.17 1027.65 1006.76 1025.14 1005.59C1022.64 1004.41 1020.54 1002.52 1019.11 1000.16C1017.68 997.791 1016.98 995.053 1017.1 992.29H1017.11Z" fill="#C4D600"/>
<path d="M1042.14 1087.29C1043.53 1090.07 1045.81 1092.3 1048.62 1093.64C1051.42 1094.98 1054.59 1095.35 1057.62 1094.69C1060.66 1094.03 1063.39 1092.37 1065.38 1089.99C1067.38 1087.61 1068.52 1084.63 1068.64 1081.53C1068.74 1079.59 1068.43 1077.65 1067.73 1075.84C1066.72 1073.16 1064.92 1070.85 1062.56 1069.23C1060.2 1067.6 1057.41 1066.74 1054.54 1066.76C1051.68 1066.78 1048.89 1067.67 1046.55 1069.32C1044.21 1070.97 1042.44 1073.3 1041.46 1075.99L1050.23 1083.12L1040.59 1080.88C1040.58 1083.11 1041.12 1085.31 1042.14 1087.29Z" fill="#C4D600"/>
<path d="M1049.07 1060.04C1052.57 1060.3 1056.04 1059.25 1058.79 1057.08C1061.55 1054.91 1063.39 1051.78 1063.95 1048.32C1064.51 1044.86 1063.75 1041.31 1061.82 1038.38C1059.89 1035.45 1056.93 1033.35 1053.53 1032.5L1053.6 1038.29L1050.42 1032C1046.7 1031.83 1043.06 1033.14 1040.31 1035.64C1037.56 1038.15 1035.91 1041.65 1035.74 1045.37C1035.57 1049.09 1036.88 1052.73 1039.38 1055.48C1041.89 1058.23 1045.39 1059.88 1049.11 1060.05L1049.07 1060.04Z" fill="#C4D600"/>
<path d="M1015 1037.37C1018.71 1037.55 1022.34 1036.24 1025.09 1033.74C1027.84 1031.23 1029.49 1027.74 1029.66 1024.03C1029.84 1020.32 1028.53 1016.69 1026.03 1013.94C1023.52 1011.19 1020.03 1009.55 1016.32 1009.37C1013.7 1009.24 1011.09 1009.86 1008.8 1011.15L1011.28 1017.95L1006.17 1013.05C1003.44 1015.55 1001.81 1019.04 1001.64 1022.74C1001.57 1024.03 1001.69 1025.33 1002 1026.59C1002.7 1029.56 1004.35 1032.22 1006.69 1034.16C1009.04 1036.11 1011.96 1037.23 1015 1037.37Z" fill="#C4D600"/>
<path opacity="0.1" d="M1019 996.03C1022.24 996.39 1025.39 997.4 1028.64 997.6C1031.89 997.8 1035.46 997.02 1037.52 994.5C1038.63 993.13 1039.18 991.41 1040.11 989.93C1041 988.548 1042.22 987.405 1043.65 986.6C1044.5 988.37 1044.96 990.298 1045.02 992.26C1045.07 994.221 1044.71 996.172 1043.96 997.986C1043.21 999.799 1042.09 1001.44 1040.67 1002.79C1039.25 1004.14 1037.56 1005.18 1035.71 1005.83C1033.86 1006.49 1031.89 1006.75 1029.93 1006.6C1027.98 1006.45 1026.08 1005.89 1024.35 1004.95C1022.63 1004.02 1021.12 1002.73 1019.92 1001.17C1018.72 999.617 1017.87 997.828 1017.41 995.92C1017.94 995.94 1018.47 995.98 1019 996.03Z" fill="black"/>
<path opacity="0.1" d="M1015 1037.37C1017.42 1037.49 1019.83 1036.99 1022 1035.9C1024.16 1034.81 1026.01 1033.18 1027.35 1031.16C1028.7 1029.14 1029.5 1026.81 1029.67 1024.4C1029.85 1021.98 1029.39 1019.56 1028.35 1017.37C1027.24 1018.12 1026.28 1019.08 1025.53 1020.2C1024.53 1021.71 1023.92 1023.45 1022.75 1024.84C1020.56 1027.41 1016.83 1028.25 1013.44 1028.09C1010.05 1027.93 1006.78 1026.98 1003.44 1026.67C1002.97 1026.67 1002.5 1026.59 1002.03 1026.58C1002.72 1029.54 1004.37 1032.2 1006.71 1034.15C1009.05 1036.1 1011.96 1037.23 1015 1037.37Z" fill="black"/>
<path opacity="0.1" d="M1049.07 1060.04C1051.47 1060.16 1053.86 1059.67 1056.01 1058.6C1058.16 1057.53 1060 1055.93 1061.36 1053.94C1062.71 1051.96 1063.53 1049.66 1063.74 1047.27C1063.94 1044.87 1063.53 1042.47 1062.54 1040.28C1061.37 1041.04 1060.36 1042 1059.54 1043.13C1058.45 1044.67 1057.77 1046.44 1056.54 1047.86C1054.18 1050.5 1050.2 1051.43 1046.61 1051.34C1043.02 1051.25 1039.79 1050.41 1036.33 1050.15C1037.17 1052.91 1038.85 1055.34 1041.13 1057.11C1043.41 1058.88 1046.19 1059.91 1049.07 1060.04Z" fill="black"/>
<path opacity="0.1" d="M1042.14 1087.29C1043.53 1090.07 1045.81 1092.3 1048.62 1093.64C1051.42 1094.98 1054.59 1095.35 1057.62 1094.69C1060.66 1094.03 1063.39 1092.37 1065.38 1089.99C1067.38 1087.61 1068.52 1084.63 1068.64 1081.53C1068.74 1079.59 1068.43 1077.65 1067.73 1075.84C1066.57 1076.6 1065.54 1077.52 1064.65 1078.58C1063.31 1080.21 1062.44 1082.05 1060.89 1083.58C1058.02 1086.4 1053.39 1087.58 1049.27 1087.67C1046.89 1087.68 1044.51 1087.55 1042.14 1087.29Z" fill="black"/>
<path d="M1077.19 1107.98C1077.19 1107.98 1066.11 1107.64 1062.78 1105.26C1059.45 1102.88 1045.78 1100.04 1044.91 1103.86C1044.04 1107.68 1028.26 1122.86 1040.77 1122.92C1053.28 1122.98 1069.83 1120.92 1073.16 1118.92C1076.49 1116.92 1077.19 1107.98 1077.19 1107.98Z" fill="#656380"/>
<path opacity="0.2" d="M1040.54 1121.59C1053.05 1121.69 1069.6 1119.59 1072.94 1117.59C1075.47 1116.05 1076.48 1110.5 1076.82 1107.94H1077.19C1077.19 1107.94 1076.49 1116.87 1073.19 1118.94C1069.89 1121.01 1053.3 1123.02 1040.8 1122.94C1037.19 1122.94 1035.94 1121.63 1036.01 1119.72C1036.48 1120.85 1037.86 1121.59 1040.54 1121.59Z" fill="black"/>
<path fill-rule="evenodd" clip-rule="evenodd" d="M726.57 743.85C733.29 745.783 739.957 747.883 746.57 750.15H746.6C813.72 773.26 857.1 809.45 857.1 846.88C857.1 885.91 810.74 924.07 739.5 947.67C735.733 948.917 731.88 950.12 727.94 951.28C729.36 956.927 730.603 962.463 731.67 967.89C745.73 1038.93 734.9 1097.33 701.57 1116.62C669.31 1135.31 617.13 1116.95 564.31 1071.5C558.57 1066.55 552.973 1061.44 547.52 1056.18C543.15 1060.36 538.83 1064.36 534.52 1068.13C480 1115.79 424 1135.59 390.63 1116.33C358.33 1097.7 348.17 1043.34 361.17 974.88C362.597 967.427 364.223 960.033 366.05 952.7C360.41 951.08 354.81 949.327 349.25 947.44C280.72 924.02 235.61 885.39 235.61 846.88C235.61 809.59 277.63 773.59 343.42 750.7C350.78 748.13 358.47 745.72 366.42 743.46C364.693 736.64 363.163 729.78 361.83 722.88C348.18 653.21 357.79 597.54 390.18 578.79C424 559.24 480.21 580.23 536.32 630.06C539.807 633.167 543.24 636.337 546.62 639.57C551.653 634.717 556.81 629.983 562.09 625.37C615.65 578.78 668.67 559.28 701.09 577.98C734.9 597.47 744.8 656.69 729.66 730.2C728.707 734.773 727.677 739.323 726.57 743.85ZM720.68 925.74C724.24 924.68 727.72 923.6 731.12 922.47C792.63 902.09 830.52 870.88 830.52 846.88C830.52 824.32 795.44 795.05 737.93 775.26C731.99 773.21 725.81 771.27 719.46 769.43C711.118 795.936 701.012 821.853 689.21 847.01C701.48 872.506 711.994 898.811 720.68 925.74ZM708.6 1055.05C712.7 1032.86 711.82 1004.46 705.6 973.05L705.62 972.97C704.64 968.09 703.517 963.09 702.25 957.97C674.524 964.227 646.401 968.57 618.08 970.97C602.225 994.164 584.822 1016.26 565.99 1037.11C571.23 1042.15 576.44 1046.9 581.62 1051.36C626.79 1090.23 668.67 1104.96 688.26 1093.63C697.46 1088.3 704.9 1075 708.6 1055.05ZM403.89 1093.33C413.1 1098.64 428.34 1098.45 447.48 1091.69C468.77 1084.14 492.94 1069.22 517.05 1048.14C521.083 1044.61 525.03 1040.97 528.89 1037.23C509.681 1016.46 491.859 994.443 475.54 971.33C447.382 969.181 419.401 965.128 391.79 959.2C390.103 966.04 388.593 972.917 387.26 979.83C376.14 1038.33 384.29 1082.02 403.89 1093.33ZM285.35 883.82C302.51 898.5 327.53 911.96 357.84 922.32C362.907 924.047 368.02 925.647 373.18 927.12C381.636 899.94 391.878 873.349 403.84 847.52C392.025 822.056 381.907 795.839 373.55 769.04C366.357 771.067 359.227 773.31 352.16 775.77C295.9 795.38 262.16 824.25 262.16 846.88C262.16 857.51 269.94 870.62 285.35 883.82ZM403.48 601.78C383.96 613.06 376.21 658.09 387.89 717.78V717.79C389.143 724.21 390.567 730.593 392.16 736.94C419.496 730.857 447.197 726.551 475.09 724.05C491.266 701.064 508.948 679.176 528.02 658.53C524.91 655.56 521.8 652.68 518.7 649.93C470.24 606.9 424.27 589.78 403.48 601.78ZM637.11 752.89C643.63 763.117 649.927 773.477 656 783.97C662.18 794.63 668.14 805.41 673.88 816.31C681.407 798.82 688.045 780.96 693.77 762.8C675.93 758.72 656.94 755.4 637.11 752.89ZM583.21 721.64C571.769 706.322 559.563 691.59 546.64 677.5V677.51C534.2 690.92 521.83 705.72 509.76 721.64C534.253 720.487 558.737 720.487 583.21 721.64ZM419.09 816.29C424.69 805.443 430.54 794.73 436.64 784.15H436.62C442.72 773.57 449.077 763.133 455.69 752.84C435.99 755.31 417.08 758.52 399.35 762.52C404.75 779.93 411.36 797.96 419.09 816.29ZM456.229 942.798C456.236 942.798 456.243 942.799 456.25 942.8H456.23C456.23 942.799 456.229 942.798 456.229 942.798ZM456.229 942.798C449.476 932.318 442.986 921.683 436.76 910.89C430.64 900.31 424.77 889.59 419.15 878.73C411.25 897.46 404.49 915.88 399 933.59C417.906 937.637 437.007 940.71 456.229 942.798ZM547.38 1018.12C547.383 1018.12 547.387 1018.13 547.39 1018.13H547.37C547.373 1018.13 547.377 1018.12 547.38 1018.12ZM510 973.38C522.237 989.586 534.783 1004.58 547.38 1018.12C560.303 1003.8 572.482 988.821 583.87 973.25C571.53 973.81 559.027 974.09 546.36 974.09C534.02 974.09 521.9 973.853 510 973.38ZM695 932.44C688.979 913.869 681.997 895.625 674.08 877.78C668.333 888.887 662.333 899.86 656.08 910.7C649.927 921.367 643.567 931.91 637 942.33C656.493 940.049 675.853 936.748 695 932.44ZM603.27 945.54C613.73 929.82 623.667 913.787 633.08 897.44L633.11 897.4C642.617 880.947 651.52 864.18 659.82 847.1C651.42 830.147 642.49 813.523 633.03 797.23C623.57 780.937 613.57 765 603.03 749.42C584.56 748.02 565.5 747.28 546.34 747.28C527.18 747.28 508.24 748.01 489.75 749.41C479.09 765.037 469.047 781.037 459.62 797.41C450.18 813.79 441.37 830.49 433.19 847.51C441.33 864.45 450.167 881.143 459.7 897.59C469.233 914.037 479.363 930.093 490.09 945.76C508.21 946.94 526.94 947.54 546.36 947.54C565.78 947.54 584.83 946.86 603.27 945.54ZM703.68 724.85C716.75 661.38 708.66 612.98 687.85 600.98C668.31 589.71 625.43 605.47 579.55 645.4C574.69 649.647 569.927 654.017 565.26 658.51C584.22 679.161 601.77 701.064 617.79 724.07C645.746 726.607 673.504 730.994 700.88 737.2C701.887 733.093 702.82 728.977 703.68 724.85Z" fill="#62B5E5"/>
<path d="M546.34 791.38C557.317 791.38 568.047 794.635 577.174 800.733C586.301 806.832 593.415 815.5 597.615 825.641C601.816 835.782 602.915 846.942 600.774 857.707C598.632 868.473 593.346 878.363 585.584 886.124C577.823 893.886 567.933 899.172 557.168 901.314C546.402 903.455 535.242 902.356 525.101 898.155C514.96 893.955 506.292 886.841 500.193 877.714C494.095 868.587 490.84 857.857 490.84 846.88C490.839 839.591 492.273 832.374 495.062 825.64C497.851 818.905 501.939 812.787 507.093 807.633C512.247 802.479 518.365 798.391 525.099 795.602C531.834 792.813 539.051 791.379 546.34 791.38Z" fill="#62B5E5"/>
<path d="M560.26 439.4C560.26 442.683 559.286 445.893 557.462 448.622C555.638 451.352 553.046 453.48 550.013 454.736C546.979 455.993 543.642 456.322 540.422 455.681C537.201 455.041 534.244 453.46 531.922 451.138C529.6 448.816 528.019 445.859 527.379 442.639C526.738 439.418 527.067 436.081 528.324 433.047C529.58 430.014 531.708 427.422 534.438 425.598C537.167 423.774 540.377 422.8 543.66 422.8C545.843 422.789 548.006 423.212 550.025 424.042C552.044 424.872 553.878 426.095 555.422 427.638C556.965 429.182 558.188 431.016 559.018 433.035C559.848 435.054 560.271 437.217 560.26 439.4Z" fill="#B86930"/>
<path d="M530.4 443.59C529.084 441.212 528.371 438.548 528.324 435.831C528.277 433.113 528.897 430.426 530.13 428.004C531.363 425.582 533.171 423.499 535.395 421.938C537.62 420.377 540.193 419.385 542.89 419.05C540.603 418.97 538.324 419.364 536.197 420.206C534.069 421.049 532.138 422.322 530.526 423.947C528.914 425.571 527.656 427.511 526.829 429.645C526.003 431.779 525.627 434.061 525.724 436.347C525.822 438.633 526.391 440.875 527.396 442.931C528.401 444.986 529.82 446.812 531.565 448.294C533.309 449.775 535.341 450.879 537.532 451.538C539.724 452.196 542.028 452.394 544.3 452.12C541.445 452.015 538.665 451.174 536.23 449.68C533.795 448.185 531.787 446.088 530.4 443.59Z" fill="#B86930"/>
<path d="M567.38 462.52H522.91V531.89H567.38V462.52Z" fill="#B86930"/>
<path opacity="0.1" d="M567.38 462.52H522.91V531.89H567.38V462.52Z" fill="black"/>
<path d="M452.66 714.2C452.66 714.2 447.91 727.25 436.66 729.03C425.41 730.81 418.87 733.77 418.87 733.77L445.55 750.96L459.78 749.18C459.78 749.18 461.56 730.8 467.49 726.65C473.42 722.5 452.66 714.2 452.66 714.2Z" fill="#F7D4A0"/>
<path d="M645.34 714.2C645.34 714.2 650.09 727.25 661.34 729.03C672.59 730.81 679.13 733.77 679.13 733.77L652.45 750.96L638.22 749.18C638.22 749.18 636.44 730.8 630.51 726.65C624.58 722.5 645.34 714.2 645.34 714.2Z" fill="#F7D4A0"/>
<path d="M515.5 599.18C515.5 599.18 508.39 602.74 506.02 609.86C506.02 609.86 493.02 614.01 485.86 625.27C485.86 625.27 476.96 634.76 475.78 639.5C474.6 644.24 461 672.7 461 672.7C461 672.7 447.36 717.17 440.25 721.91C440.25 721.91 462.78 717.17 466.93 739.7C466.93 739.7 472.26 739.7 478.19 718.95C484.12 698.2 498.35 672.7 498.35 672.7C498.35 672.7 503.09 654.92 507.24 651.95C511.39 648.98 517.91 635.35 523.84 638.95C529.77 642.55 568.9 638.35 568.9 638.35C568.9 638.35 592 648.99 592.58 656.1C593.16 663.21 597.32 663.81 597.91 669.74C598.5 675.67 620.44 722.5 620.44 722.5C620.44 722.5 624.59 735.5 625.78 738.5C625.78 738.5 638.78 707.08 656.02 724.87C656.02 724.87 655.42 713.01 650.09 705.87C644.76 698.73 621.63 643.03 621.63 643.03C621.63 643.03 619.26 634.73 616.89 632.36C614.52 629.99 596.13 611.01 589.61 611.01C589.61 611.01 586.06 602.12 581.91 600.93L515.5 599.18Z" fill="#3F3D56"/>
<path d="M462.14 745.03C457.509 746.889 452.476 747.517 447.531 746.853C442.585 746.189 437.896 744.255 433.92 741.24C430.056 738.273 425.824 735.819 421.33 733.94C415.04 731.4 407.52 729.52 405.23 733.77C401.08 741.48 455.62 760.45 455.62 760.45C455.62 760.45 462.74 756.3 462.14 745.03Z" fill="#3F3D56"/>
<path d="M635.86 745.03C640.491 746.889 645.524 747.517 650.469 746.853C655.415 746.189 660.104 744.255 664.08 741.24C667.944 738.273 672.176 735.819 676.67 733.94C682.96 731.4 690.48 729.52 692.77 733.77C696.92 741.48 642.38 760.45 642.38 760.45C642.38 760.45 635.26 756.3 635.86 745.03Z" fill="#3F3D56"/>
<path d="M534.88 501.67C534.66 503.73 533.98 505.96 532.22 507.05C530.78 507.95 528.96 507.88 527.3 508.22C525.557 508.656 523.941 509.497 522.583 510.673C521.224 511.849 520.162 513.328 519.48 514.99C518.148 518.345 517.887 522.03 518.73 525.54C519.122 527.259 519.63 528.949 520.25 530.6C521.99 535.52 524.09 540.4 527.34 544.49C530.113 547.742 533.232 550.682 536.64 553.26C538.75 554.98 540.93 556.73 543.53 557.54C545.293 558.005 547.107 558.247 548.93 558.26C551.18 558.36 553.58 558.43 555.53 557.31C558.53 555.58 559.42 551.76 561.05 548.69C562.43 546.09 564.49 543.88 565.78 541.23C566.697 539.141 567.368 536.953 567.78 534.71L570.55 522.41C571.55 517.94 572.47 512.9 569.96 509.07C569.778 508.758 569.524 508.494 569.22 508.3C568.737 508.11 568.211 508.058 567.7 508.15C564.512 508.357 561.332 507.631 558.55 506.06C558.114 505.834 557.724 505.529 557.4 505.16C557.001 504.52 556.76 503.792 556.7 503.04C556.43 501.516 556.001 500.025 555.42 498.59C555.256 498.073 554.956 497.61 554.55 497.25C554.124 496.983 553.641 496.822 553.14 496.78C548.859 496.085 544.542 495.635 540.21 495.43C538.79 495.36 536.65 494.79 535.67 496.05C534.69 497.31 535 500.17 534.88 501.67Z" fill="#F7D4A0"/>
<path opacity="0.05" d="M534.88 501.67C534.66 503.73 533.98 505.96 532.22 507.05C530.78 507.95 528.96 507.88 527.3 508.22C525.557 508.656 523.941 509.497 522.583 510.673C521.224 511.849 520.162 513.328 519.48 514.99C518.148 518.345 517.887 522.03 518.73 525.54C519.122 527.259 519.63 528.949 520.25 530.6C521.99 535.52 524.09 540.4 527.34 544.49C530.113 547.742 533.232 550.682 536.64 553.26C538.75 554.98 540.93 556.73 543.53 557.54C545.293 558.005 547.107 558.247 548.93 558.26C551.18 558.36 553.58 558.43 555.53 557.31C558.53 555.58 559.42 551.76 561.05 548.69C562.43 546.09 564.49 543.88 565.78 541.23C566.697 539.141 567.368 536.953 567.78 534.71L570.55 522.41C571.55 517.94 572.47 512.9 569.96 509.07C569.778 508.758 569.524 508.494 569.22 508.3C568.737 508.11 568.211 508.058 567.7 508.15C564.512 508.357 561.332 507.631 558.55 506.06C558.114 505.834 557.724 505.529 557.4 505.16C557.001 504.52 556.76 503.792 556.7 503.04C556.43 501.516 556.001 500.025 555.42 498.59C555.256 498.073 554.956 497.61 554.55 497.25C554.124 496.983 553.641 496.822 553.14 496.78C548.859 496.085 544.542 495.635 540.21 495.43C538.79 495.36 536.65 494.79 535.67 496.05C534.69 497.31 535 500.17 534.88 501.67Z" fill="black"/>
<path d="M526.85 508.74C524.534 508.048 522.136 507.672 519.72 507.62C514 507.48 507.88 509.45 504.58 514.12C502.332 517.491 501.509 521.614 502.29 525.59C503.086 529.528 504.876 533.198 507.49 536.25C509 537.854 510.341 539.61 511.49 541.49C513.07 544.49 513.12 548.08 513.55 551.49C514.55 559.61 518.01 567.24 519.38 575.31C520.75 583.38 519.57 592.73 513.2 597.86C512.13 598.72 510.83 599.63 510.74 601C510.6 603.19 513.45 604.12 515.64 604.33C522.19 604.95 528.91 605.56 535.27 603.87C537.9 603.17 540.44 602.08 543.12 601.58C549.92 600.31 556.76 602.92 563.57 604.17C568.498 604.984 573.485 605.388 578.48 605.38C579.643 605.484 580.814 605.33 581.91 604.93C582.453 604.717 582.915 604.337 583.227 603.844C583.54 603.352 583.688 602.772 583.65 602.19C583.428 601.436 583.022 600.749 582.47 600.19C579.03 595.94 577.98 590.29 577.04 584.9L573.89 566.79C572.2 557.11 570.63 546.59 575.21 537.9C578.5 531.65 584.57 527.25 588.04 521.1C589.25 519.241 589.796 517.028 589.59 514.82C589.07 511.73 586.28 509.52 583.42 508.23C577.917 505.761 571.669 505.532 566 507.59C566.1 511.92 565 516.3 564.29 520.59L563.08 527.59C562.464 531.715 561.559 535.792 560.37 539.79C559.938 541.389 559.202 542.89 558.2 544.21C557.132 545.397 555.828 546.348 554.37 547C551.214 548.543 547.743 549.337 544.23 549.32C542.708 549.343 541.194 549.11 539.75 548.63C537.424 547.61 535.326 546.135 533.58 544.29C532.968 543.767 532.421 543.173 531.95 542.52C531.452 541.689 531.078 540.789 530.84 539.85C530.03 537.404 529.392 534.905 528.93 532.37C528.63 530.43 528.53 528.46 528.39 526.5C528 520.71 528 514.31 526.85 508.74Z" fill="#C4D600"/>
<path d="M520.84 623.49C520.84 623.49 518.47 654.92 533.29 660.25C548.11 665.58 535.07 634.16 535.07 634.16L530.32 624.68L520.84 623.49Z" fill="#F7D4A0"/>
<path d="M571.23 623.49C571.23 623.49 573.6 654.92 558.78 660.25C543.96 665.58 557 634.16 557 634.16L561.75 624.68L571.23 623.49Z" fill="#F7D4A0"/>
<path opacity="0.1" d="M507.79 518.59L503.05 526.3C503.05 526.3 507.2 552.98 507.79 557.72C508.302 561.14 509.098 564.512 510.17 567.8C510.17 567.8 510.76 582.03 510.76 587.37C510.76 592.71 513.76 601.6 513.76 601.6C514.178 606.64 515.185 611.614 516.76 616.42C519.13 622.94 521.5 630.65 521.5 630.65C521.5 630.65 524.5 622.35 536.32 634.8C537.644 633.457 538.386 631.646 538.386 629.76C538.386 627.874 537.644 626.063 536.32 624.72C536.32 624.72 532.77 608.72 532.77 600.41C532.77 592.1 526.24 552.41 526.24 552.41C526.24 552.41 522 507.29 507.79 518.59Z" fill="black"/>
<path d="M506.61 517.96L501.87 525.67C501.87 525.67 506.02 552.35 506.61 557.09C507.123 560.511 507.923 563.883 509 567.17C509 567.17 509.59 581.4 509.59 586.73C509.59 592.06 512.59 600.96 512.59 600.96C513.006 606 514.013 610.975 515.59 615.78C517.96 622.31 520.34 630.01 520.34 630.01C520.34 630.01 523.34 621.71 535.16 634.16C536.481 632.817 537.221 631.009 537.221 629.125C537.221 627.241 536.481 625.433 535.16 624.09C535.16 624.09 531.6 608.09 531.6 599.78C531.6 591.47 525.08 551.78 525.08 551.78C525.08 551.78 520.84 506.69 506.61 517.96Z" fill="#C4D600"/>
<path opacity="0.1" d="M584.87 513.81L587.87 517.34C587.87 517.34 591.36 537.52 583.65 563.02L581.28 586.14C581.28 586.14 577.13 605.71 576.54 610.45C575.95 615.19 575.95 615.78 574.76 617.56C574.399 617.976 574.2 618.509 574.2 619.06C574.2 619.611 574.399 620.144 574.76 620.56L571.2 633.56C571.2 633.56 565.87 627.04 555.2 635.34C555.2 635.34 552.2 630.6 554.6 626.45C557 622.3 556.97 620.52 556.38 619.33C555.79 618.14 558.75 612.22 558.75 611.03C558.75 609.84 562.93 582.59 562.93 582.59C562.93 582.59 564.71 555.91 566.49 547.02C567.58 541.55 567.56 529.36 567.37 520.78C567.18 511.84 578 507 584.37 513.28C584.52 513.44 584.7 513.59 584.87 513.81Z" fill="black"/>
<path d="M586.65 512.59L589.65 516.12C589.65 516.12 593.14 536.31 585.43 561.8L583.06 584.92C583.06 584.92 578.91 604.49 578.32 609.23C577.73 613.97 577.72 614.57 576.54 616.35C576.177 616.765 575.977 617.298 575.977 617.85C575.977 618.402 576.177 618.935 576.54 619.35L573 632.39C573 632.39 567.67 625.86 557 634.16C557 634.16 554 629.42 556.41 625.27C558.82 621.12 558.78 619.34 558.19 618.16C557.6 616.98 560.56 611.04 560.56 609.86C560.56 608.68 564.71 581.4 564.71 581.4C564.71 581.4 566.49 554.72 568.27 545.82C570.05 536.92 568.86 510.25 568.86 510.25C568.86 510.25 578.35 503.73 586.65 512.59Z" fill="#C4D600"/>
<path d="M546.92 504.33C560.02 504.33 570.64 493.71 570.64 480.61C570.64 467.51 560.02 456.89 546.92 456.89C533.82 456.89 523.2 467.51 523.2 480.61C523.2 493.71 533.82 504.33 546.92 504.33Z" fill="#F7D4A0"/>
<path opacity="0.1" d="M559.29 445C558.15 448.183 556.065 450.941 553.314 452.907C550.563 454.873 547.278 455.952 543.898 456C540.517 456.047 537.203 455.062 534.397 453.175C531.592 451.288 529.43 448.589 528.2 445.44C537.46 441.71 546.92 445.03 546.92 445.03C551.65 443.37 555.75 443.52 559.29 445Z" fill="black"/>
<path d="M546.92 446.22C546.92 446.22 501.27 430.22 512.54 507.88C512.54 507.88 522.62 514.4 530.32 510.25C530.32 510.25 524.99 456.3 545.74 458.67C566.49 461.04 562.93 509.07 562.93 509.07C562.93 509.07 574.79 512.62 578.35 506.07C581.91 499.52 577.16 435.59 546.92 446.22Z" fill="#B86930"/>
<path opacity="0.1" d="M545.74 455.11C531.5 453.49 529.54 478.38 529.74 494.16C529.91 478.47 532.55 457.16 545.74 458.67C560.55 460.36 562.98 485.33 563.15 499.47C563.32 486.49 561.9 456.96 545.74 455.11Z" fill="black"/>
<path opacity="0.1" d="M512.54 504.32C511.508 497.522 510.917 490.664 510.77 483.79C510.721 491.854 511.312 499.91 512.54 507.88C512.54 507.88 522.62 514.4 530.32 510.25C530.32 510.25 530.2 508.97 530.06 506.82C522.39 510.69 512.54 504.32 512.54 504.32Z" fill="black"/>
<path opacity="0.1" d="M578.35 502.59C575.03 508.67 564.52 506 563.1 505.59C563.03 507.79 562.93 509.11 562.93 509.11C562.93 509.11 574.79 512.66 578.35 506.11C579.08 504.77 579.46 500.98 579.35 495.91C579.25 499.16 578.9 501.59 578.35 502.59Z" fill="black"/>
<path d="M827.73 1091.96C832.47 1083.18 827.09 1072.42 820.91 1064.59C814.73 1056.76 807.18 1048.59 807.34 1038.59C807.57 1024.24 822.79 1015.78 834.96 1008.17C843.981 1002.53 852.302 995.839 859.75 988.24C862.75 985.19 865.62 981.93 867.37 978.03C869.89 972.43 869.82 966.03 869.66 959.91C869.133 939.437 868.133 918.99 866.66 898.57" stroke="#3F3D56" stroke-width="4" stroke-miterlimit="10"/>
<path d="M889.74 897.49C889.569 893.745 888.457 890.103 886.506 886.901C884.556 883.699 881.83 881.04 878.58 879.17L873.58 889.07L873.73 877.07C869.182 875.724 864.323 875.859 859.857 877.456C855.39 879.052 851.546 882.026 848.881 885.95C846.215 889.873 844.866 894.542 845.027 899.282C845.189 904.023 846.853 908.589 849.779 912.322C852.705 916.055 856.743 918.761 861.307 920.05C865.872 921.338 870.728 921.143 875.175 919.491C879.621 917.839 883.427 914.816 886.043 910.86C888.66 906.904 889.951 902.218 889.73 897.48L889.74 897.49Z" fill="#C4D600"/>
<path d="M849.86 1048.88C847.514 1053.44 843.67 1057.06 838.974 1059.12C834.277 1061.19 829.014 1061.58 824.066 1060.22C819.118 1058.86 814.787 1055.85 811.799 1051.68C808.811 1047.51 807.348 1042.44 807.655 1037.32C807.963 1032.19 810.021 1027.33 813.487 1023.55C816.952 1019.77 821.612 1017.29 826.687 1016.54C831.761 1015.78 836.941 1016.8 841.357 1019.41C845.773 1022.02 849.156 1026.07 850.94 1030.88L836.94 1042.25L852.31 1038.68C852.318 1042.23 851.478 1045.72 849.86 1048.88Z" fill="#C4D600"/>
<path d="M838.81 1005.45C833.338 1005.68 827.97 1003.9 823.726 1000.44C819.481 996.975 816.654 992.077 815.779 986.67C814.905 981.263 816.045 975.723 818.984 971.101C821.922 966.478 826.453 963.094 831.72 961.59L831.6 970.81L836.66 960.81H836.72C839.667 960.651 842.616 961.077 845.398 962.062C848.18 963.048 850.739 964.575 852.928 966.554C855.117 968.533 856.893 970.926 858.153 973.594C859.413 976.263 860.133 979.154 860.271 982.102C860.409 985.05 859.962 987.997 858.956 990.771C857.951 993.546 856.406 996.094 854.411 998.269C852.416 1000.44 850.011 1002.2 847.333 1003.44C844.656 1004.68 841.759 1005.38 838.81 1005.5V1005.45Z" fill="#C4D600"/>
<path d="M893.11 969.32C889.65 969.482 886.2 968.838 883.032 967.44C879.863 966.042 877.063 963.927 874.851 961.262C872.639 958.597 871.076 955.455 870.285 952.083C869.494 948.711 869.497 945.201 870.293 941.831C871.089 938.46 872.658 935.321 874.874 932.659C877.09 929.998 879.894 927.887 883.065 926.494C886.236 925.101 889.687 924.463 893.146 924.631C896.606 924.798 899.979 925.767 903 927.46L899 938.29L907.13 930.49C910.385 933.476 912.683 937.358 913.735 941.648C914.786 945.938 914.545 950.443 913.04 954.596C911.535 958.748 908.835 962.363 905.279 964.983C901.724 967.603 897.472 969.112 893.06 969.32H893.11Z" fill="#C4D600"/>
<path opacity="0.1" d="M886.74 903.45C881.57 904.02 876.55 905.63 871.37 905.95C866.19 906.27 860.5 905.03 857.23 900.95C855.46 898.78 854.58 896.04 853.09 893.67C851.675 891.47 849.742 889.65 847.46 888.37C846.018 891.206 845.197 894.317 845.052 897.495C844.907 900.673 845.442 903.846 846.621 906.801C847.8 909.756 849.596 912.426 851.889 914.631C854.181 916.837 856.918 918.529 859.916 919.593C862.915 920.657 866.105 921.07 869.276 920.803C872.446 920.536 875.523 919.596 878.301 918.045C881.079 916.495 883.495 914.369 885.386 911.811C887.278 909.253 888.602 906.321 889.27 903.21C888.42 903.3 887.58 903.36 886.74 903.45Z" fill="black"/>
<path opacity="0.1" d="M893.11 969.32C889.255 969.497 885.419 968.674 881.976 966.932C878.532 965.19 875.598 962.587 873.456 959.376C871.315 956.165 870.04 952.456 869.755 948.607C869.47 944.758 870.185 940.901 871.83 937.41C873.611 938.604 875.14 940.137 876.33 941.92C877.92 944.32 878.89 947.1 880.76 949.31C884.24 953.4 890.2 954.74 895.6 954.5C901 954.26 906.2 952.72 911.6 952.22C912.35 952.16 913.1 952.11 913.86 952.09C912.747 956.828 910.118 961.074 906.374 964.184C902.629 967.293 897.972 969.097 893.11 969.32Z" fill="black"/>
<path opacity="0.1" d="M838.81 1005.45C834.993 1005.63 831.194 1004.83 827.775 1003.12C824.357 1001.41 821.432 998.86 819.28 995.702C817.128 992.545 815.821 988.889 815.483 985.082C815.145 981.276 815.788 977.447 817.35 973.96C819.195 975.171 820.798 976.714 822.08 978.51C823.82 980.96 824.9 983.78 826.94 986.05C830.71 990.25 837.05 991.73 842.77 991.59C848.31 991.47 853.64 990.11 859.15 989.69C857.795 994.092 855.115 997.968 851.474 1000.79C847.833 1003.61 843.411 1005.24 838.81 1005.45Z" fill="black"/>
<path opacity="0.1" d="M849.86 1048.88C847.268 1054.02 842.794 1057.96 837.368 1059.89C831.943 1061.81 825.984 1061.57 820.732 1059.22C815.479 1056.86 811.337 1052.57 809.166 1047.24C806.996 1041.91 806.965 1035.94 809.08 1030.59C810.925 1031.8 812.579 1033.28 813.99 1034.97C816.12 1037.56 817.52 1040.5 819.99 1042.91C824.56 1047.4 831.94 1049.25 838.51 1049.42C842.301 1049.46 846.09 1049.28 849.86 1048.88Z" fill="black"/>
<path d="M794 1081.85C794 1081.85 811.65 1081.31 817 1077.52C822.35 1073.73 844.16 1069.21 845.48 1075.28C846.8 1081.35 872.01 1105.5 852.08 1105.66C832.15 1105.82 805.77 1102.56 800.46 1099.32C795.15 1096.08 794 1081.85 794 1081.85Z" fill="#656380"/>
<path opacity="0.2" d="M852.4 1103.59C832.47 1103.75 806.09 1100.48 800.78 1097.25C796.78 1094.78 795.13 1085.95 794.59 1081.87H794C794 1081.87 795.12 1096.11 800.43 1099.34C805.74 1102.57 832.12 1105.84 852.05 1105.68C857.8 1105.68 859.79 1103.59 859.68 1100.56C858.88 1102.37 856.69 1103.51 852.4 1103.59Z" fill="black"/>
<path d="M172.3 557.17L154.05 568.74L165.13 548.59C162.003 546.09 158.133 544.704 154.13 544.65H153.83C152.564 544.668 151.299 544.574 150.05 544.37L143.86 548.29L146.51 543.47C142.13 541.939 138.343 539.066 135.69 535.26L124.62 542.26L131.62 529.54C125.14 521.77 116.42 517 106.81 517C95.3 517 85.05 523.85 78.43 534.52C76.4721 537.71 73.7058 540.327 70.4114 542.104C67.117 543.881 63.4114 544.756 59.67 544.64H59.05C46.34 544.64 36.05 559.05 36.05 576.83C36.05 594.61 46.35 609.01 59.05 609.01C61.8394 609.002 64.5849 608.316 67.05 607.01C75.34 602.7 86.22 602.62 94.9 606.47C98.6214 608.144 102.654 609.013 106.735 609.022C110.815 609.031 114.852 608.178 118.58 606.52C127.2 602.75 137.95 602.83 146.19 607.06C148.635 608.353 151.354 609.039 154.12 609.06C166.83 609.06 177.12 594.65 177.12 576.88C177.196 570.009 175.538 563.23 172.3 557.17Z" fill="#F2F2F2"/>
<path opacity="0.03" d="M137.89 604.26C131.25 602.997 124.385 603.742 118.17 606.4C114.443 608.057 110.408 608.909 106.33 608.9C102.251 608.891 98.2201 608.022 94.5 606.35C85.81 602.5 74.93 602.58 66.64 606.89C64.175 608.196 61.4294 608.882 58.64 608.89C47.35 608.89 37.96 597.51 36 582.51C38.2554 580.867 40.1708 578.802 41.64 576.43C48.3 565.77 58.51 558.9 70.02 558.9C81.53 558.9 91.66 565.67 98.28 576.22C100.256 579.408 103.02 582.031 106.307 583.838C109.593 585.644 113.29 586.571 117.04 586.53H117.3C126.3 586.54 134.1 593.75 137.89 604.26Z" fill="black"/>
<path d="M824.99 517.02L815.92 522.79L821.45 512.79C819.888 511.527 817.948 510.823 815.94 510.79H815.8C815.167 510.799 814.535 510.752 813.91 510.65L810.82 512.65L812.12 510.19C809.935 509.429 808.045 507.997 806.72 506.1L801.2 509.6L804.69 503.26C803.221 501.365 801.349 499.82 799.21 498.737C797.07 497.654 794.717 497.061 792.32 497C786.57 497 781.46 500.42 778.16 505.74C777.179 507.325 775.797 508.622 774.153 509.5C772.509 510.378 770.662 510.806 768.8 510.74H768.49C762.15 510.74 757.01 517.93 757.01 526.74C757.01 535.55 762.15 542.79 768.49 542.79C769.885 542.785 771.257 542.442 772.49 541.79C774.648 540.742 777.007 540.175 779.405 540.128C781.804 540.081 784.183 540.556 786.38 541.52C788.239 542.347 790.25 542.775 792.285 542.775C794.319 542.775 796.331 542.347 798.19 541.52C800.371 540.576 802.729 540.111 805.104 540.158C807.48 540.204 809.818 540.761 811.96 541.79C813.193 542.442 814.565 542.786 815.96 542.79C822.3 542.79 827.44 535.61 827.44 526.74C827.45 523.346 826.607 520.004 824.99 517.02Z" fill="#F2F2F2"/>
<path opacity="0.03" d="M807.84 540.51C804.53 539.885 801.108 540.257 798.01 541.58C796.151 542.407 794.139 542.835 792.105 542.835C790.07 542.835 788.059 542.407 786.2 541.58C784.002 540.616 781.62 540.141 779.22 540.188C776.82 540.234 774.459 540.801 772.3 541.85C771.068 542.505 769.695 542.848 768.3 542.85C762.66 542.85 757.98 537.18 757 529.7C758.122 528.888 759.079 527.87 759.82 526.7C763.12 521.38 768.24 517.97 773.98 517.97C779.72 517.97 784.77 521.34 788.07 526.6C789.055 528.191 790.434 529.501 792.074 530.401C793.714 531.302 795.559 531.763 797.43 531.74H797.58C802.07 531.67 805.92 535.27 807.84 540.51Z" fill="black"/>
<path d="M205.34 634.86L220 644.14L211.12 627.99C213.638 625.986 216.752 624.877 219.97 624.84H220.2C221.205 624.855 222.208 624.781 223.2 624.62L228.15 627.76L226 623.9C229.507 622.667 232.539 620.366 234.67 617.32L243.54 622.94L238 612.75C243.19 606.53 250.18 602.75 257.87 602.75C267.1 602.75 275.31 608.23 280.62 616.75C282.185 619.303 284.396 621.398 287.03 622.822C289.664 624.246 292.627 624.949 295.62 624.86H296.12C306.3 624.86 314.55 636.4 314.55 650.64C314.55 664.88 306.3 676.43 296.12 676.43C293.878 676.421 291.672 675.869 289.69 674.82C286.224 673.136 282.434 672.226 278.582 672.151C274.73 672.077 270.908 672.841 267.38 674.39C264.391 675.726 261.154 676.417 257.88 676.417C254.606 676.417 251.369 675.726 248.38 674.39C244.877 672.873 241.09 672.126 237.273 672.2C233.457 672.274 229.701 673.168 226.26 674.82C224.298 675.841 222.121 676.379 219.91 676.39C209.72 676.39 201.47 664.85 201.47 650.6C201.422 645.112 202.753 639.7 205.34 634.86Z" fill="#F2F2F2"/>
<path opacity="0.03" d="M232.89 672.59C238.211 671.587 243.71 672.186 248.69 674.31C251.679 675.646 254.916 676.337 258.19 676.337C261.464 676.337 264.701 675.646 267.69 674.31C271.22 672.761 275.043 671.997 278.897 672.071C282.751 672.145 286.543 673.056 290.01 674.74C291.988 675.789 294.191 676.341 296.43 676.35C305.48 676.35 313 667.24 314.57 655.22C312.764 653.898 311.23 652.242 310.05 650.34C304.74 641.8 296.53 636.34 287.3 636.34C278.07 636.34 269.97 641.76 264.66 650.22C263.08 652.769 260.869 654.867 258.242 656.312C255.614 657.757 252.659 658.5 249.66 658.47H249.43C242.17 658.4 235.93 664.18 232.89 672.59Z" fill="black"/>
<circle cx="616" cy="460" r="21" fill="#F2F2F2"/>
<circle cx="655" cy="434" r="39" fill="#F2F2F2"/>
<path d="M869.992 0.97522C761.192 0.97522 672.992 89.1751 672.992 197.975C672.943 230.657 681.062 262.833 696.611 291.578C683.265 296.766 671.498 305.339 662.468 316.453C653.439 327.567 647.458 340.84 645.113 354.966C642.769 369.093 644.141 383.586 649.096 397.021C654.051 410.456 662.418 422.37 673.373 431.592C684.328 440.813 697.495 447.024 711.578 449.614C725.662 452.204 740.177 451.084 753.696 446.364C767.216 441.644 779.273 433.486 788.684 422.693C798.095 411.899 804.534 398.843 807.369 384.806C827.556 391.561 848.705 394.995 869.992 394.975C978.792 394.975 1066.99 306.775 1066.99 197.975C1066.99 89.1751 978.792 0.97522 869.992 0.97522Z" fill="#F2F2F2"/>
<path opacity="0.1" d="M866.052 323.276C919.739 323.276 963.261 315.929 963.261 306.867C963.261 297.804 919.739 290.457 866.052 290.457C812.365 290.457 768.843 297.804 768.843 306.867C768.843 315.929 812.365 323.276 866.052 323.276Z" fill="black"/>
<path d="M863.495 257.984C862.067 257.984 860.733 257.603 859.495 256.936L846.83 249.413C844.924 248.365 845.877 247.985 846.449 247.794C849.02 246.937 849.496 246.746 852.162 245.223C852.448 245.032 852.83 245.128 853.115 245.318L862.829 251.127C863.209 251.318 863.686 251.318 863.971 251.127L901.969 229.129C902.349 228.938 902.541 228.557 902.541 228.081V184.18C902.541 183.703 902.349 183.323 901.969 183.132L863.971 161.229C863.59 161.037 863.114 161.037 862.829 161.229L824.831 183.132C824.45 183.322 824.259 183.798 824.259 184.179V228.081C824.259 228.462 824.45 228.937 824.831 229.129L835.211 235.128C840.83 237.985 844.353 234.652 844.353 231.319V187.988C844.353 187.417 844.83 186.845 845.496 186.845H850.353C850.925 186.845 851.496 187.322 851.496 187.988V231.319C851.496 238.842 847.401 243.223 840.258 243.223C838.068 243.223 836.354 243.223 831.497 240.842L821.498 235.128C819.022 233.7 817.498 231.033 817.498 228.176V184.274C817.498 181.418 819.022 178.75 821.498 177.323L859.495 155.324C861.876 153.991 865.114 153.991 867.495 155.324L905.492 177.323C907.968 178.75 909.492 181.418 909.492 184.274V228.176C909.492 231.033 907.968 233.7 905.492 235.128L867.495 257.127C866.257 257.699 864.829 257.984 863.495 257.984H863.495ZM875.208 227.795C858.543 227.795 855.115 220.177 855.115 213.701C855.115 213.129 855.591 212.558 856.258 212.558H861.21C861.781 212.558 862.257 212.939 862.257 213.511C863.019 218.558 865.209 221.034 875.304 221.034C883.303 221.034 886.732 219.224 886.732 214.939C886.732 212.463 885.779 210.654 873.304 209.416C862.924 208.368 856.448 206.083 856.448 197.798C856.448 190.083 862.924 185.512 873.78 185.512C885.969 185.512 891.97 189.703 892.732 198.844C892.732 199.131 892.636 199.416 892.446 199.702C892.255 199.892 891.97 200.083 891.684 200.083H886.732C886.255 200.083 885.779 199.702 885.684 199.226C884.541 193.988 881.589 192.274 873.78 192.274C865.019 192.274 863.971 195.322 863.971 197.606C863.971 200.368 865.209 201.225 877.018 202.749C888.731 204.273 894.255 206.463 894.255 214.653C894.16 223.034 887.303 227.795 875.208 227.795Z" fill="#86BC25"/>
<path d="M745.598 86.2809C745.598 84.567 744.645 82.947 743.122 82.0901L702.743 58.8538C702.076 58.4723 701.315 58.282 700.553 58.1864H700.172C699.41 58.1864 698.648 58.4723 697.982 58.8538L657.603 82.0901C656.079 82.947 655.127 84.5661 655.127 86.2809L655.223 148.753C655.223 149.61 655.699 150.466 656.46 150.848C657.223 151.324 658.174 151.324 658.842 150.848L682.84 137.134C684.364 136.278 685.316 134.658 685.316 132.945V103.708C685.316 101.994 686.268 100.375 687.792 99.5181L697.982 93.6135C698.744 93.1372 699.601 92.946 700.458 92.946C701.315 92.946 702.171 93.1372 702.839 93.6135L713.028 99.5181C714.553 100.375 715.504 101.993 715.504 103.708V132.945C715.504 134.658 716.457 136.278 717.98 137.134L741.979 150.848C742.741 151.324 743.693 151.324 744.455 150.848C745.217 150.466 745.693 149.61 745.693 148.753L745.598 86.2809ZM939.681 0.286127C938.919 -0.0953757 937.967 -0.0953757 937.299 0.286127C936.538 0.762388 936.062 1.52375 936.062 2.38069V64.2822C936.062 64.8532 935.777 65.4243 935.205 65.8058C934.634 66.0909 934.062 66.0909 933.491 65.8058L923.396 59.9967C922.656 59.5753 921.819 59.3537 920.968 59.3537C920.116 59.3537 919.279 59.5753 918.539 59.9967L878.161 83.3285C876.637 84.1855 875.684 85.8046 875.684 87.5185V134.087C875.684 135.8 876.637 137.42 878.161 138.277L918.539 161.609C919.279 162.031 920.116 162.252 920.968 162.252C921.819 162.252 922.656 162.031 923.396 161.609L963.775 138.277C965.298 137.42 966.251 135.801 966.251 134.087V17.9992C966.251 16.1898 965.298 14.5715 963.775 13.7137L939.681 0.286127ZM935.967 118.755C935.967 119.231 935.777 119.612 935.395 119.802L921.587 127.801C921.394 127.895 921.182 127.944 920.968 127.944C920.753 127.944 920.541 127.895 920.348 127.801L906.54 119.802C906.159 119.612 905.968 119.135 905.968 118.755V102.756C905.968 102.279 906.159 101.899 906.54 101.708L920.348 93.7082C920.541 93.6141 920.753 93.5652 920.968 93.5652C921.182 93.5652 921.394 93.6141 921.587 93.7082L935.395 101.708C935.777 101.898 935.967 102.375 935.967 102.756V118.755ZM1074.05 102.375C1075.58 101.518 1076.43 99.8988 1076.43 98.1841V86.8519C1076.43 85.138 1075.48 83.5189 1074.05 82.6619L1033.96 59.4257C1033.22 59.0045 1032.38 58.783 1031.53 58.783C1030.68 58.783 1029.84 59.0045 1029.1 59.4257L988.726 82.7567C987.201 83.6136 986.249 85.2328 986.249 86.9475V133.516C986.249 135.229 987.201 136.849 988.726 137.705L1028.82 160.561C1030.34 161.418 1032.15 161.418 1033.58 160.561L1057.86 147.04C1058.63 146.658 1059.1 145.801 1059.1 144.944C1059.1 144.087 1058.63 143.23 1057.86 142.849L1017.29 119.517C1016.53 119.041 1016.06 118.279 1016.06 117.422V102.852C1016.06 101.995 1016.53 101.138 1017.29 100.757L1029.96 93.5187C1030.33 93.2854 1030.76 93.1616 1031.2 93.1616C1031.64 93.1616 1032.07 93.2854 1032.44 93.5187L1045.1 100.757C1045.86 101.233 1046.34 101.994 1046.34 102.852V114.28C1046.34 115.137 1046.82 115.994 1047.58 116.374C1048.34 116.851 1049.29 116.851 1050.05 116.374L1074.05 102.375Z" fill="#9B9B9B"/>
<path d="M813.117 59.616C812.377 59.1948 811.54 58.9733 810.689 58.9733C809.837 58.9733 809.001 59.1948 808.261 59.616L768.168 82.7558C766.644 83.6128 765.787 85.2319 765.787 86.9458V133.324C765.787 135.038 766.739 136.657 768.168 137.514L808.261 160.656C809.001 161.077 809.837 161.299 810.689 161.299C811.54 161.299 812.377 161.077 813.117 160.656L853.21 137.514C854.734 136.657 855.592 135.038 855.592 133.324V86.9466C855.592 85.2327 854.638 83.6136 853.21 82.7567L813.117 59.616Z" fill="#86BC25"/>
<path d="M1030.91 100.185C1031.05 100.092 1031.22 100.042 1031.39 100.042C1031.56 100.042 1031.72 100.092 1031.87 100.185L1039.58 104.661C1039.87 104.85 1040.06 105.136 1040.06 105.518V114.469C1040.06 114.85 1039.87 115.136 1039.58 115.326L1031.87 119.802C1031.72 119.895 1031.56 119.945 1031.39 119.945C1031.22 119.945 1031.05 119.895 1030.91 119.802L1023.2 115.326C1022.91 115.136 1022.72 114.85 1022.72 114.469V105.518C1022.72 105.136 1022.91 104.85 1023.2 104.661L1030.91 100.185Z" fill="#86BC25"/>
<circle cx="470" cy="472" r="21" fill="#F2F2F2"/>
<circle cx="424" cy="459" r="39" fill="#F2F2F2"/>
<path d="M197 47C305.8 47 394 135.2 394 244C394.049 276.682 385.93 308.857 370.381 337.603C383.728 342.791 395.494 351.364 404.524 362.478C413.553 373.592 419.534 386.865 421.879 400.991C424.223 415.118 422.851 429.611 417.896 443.046C412.941 456.481 404.574 468.395 393.619 477.617C382.664 486.838 369.497 493.049 355.414 495.639C341.33 498.229 326.815 497.109 313.296 492.389C299.777 487.668 287.719 479.511 278.308 468.717C268.897 457.924 262.458 444.867 259.623 430.831C239.436 437.586 218.287 441.02 197 441C88.1999 441 0 352.8 0 244C0 135.2 88.1999 47 197 47Z" fill="#F2F2F2"/>
<path opacity="0.1" d="M211.052 369.301C264.739 369.301 308.261 361.954 308.261 352.891C308.261 343.828 264.739 336.481 211.052 336.481C157.365 336.481 113.842 343.828 113.842 352.891C113.842 361.954 157.365 369.301 211.052 369.301Z" fill="black"/>
<path d="M47.9999 194.406V63L161.804 128.703V172.505L85.9347 128.703V216.307L47.9999 194.406Z" fill="#00A3E0"/>
<path d="M161.804 128.703L275.609 63V194.406L199.739 238.208L161.804 216.307L237.674 172.505V128.703L161.804 172.505V128.703Z" fill="#0076A8"/>
<path d="M161.804 216.307V260.109L237.674 303.911V260.109L161.804 216.307Z" fill="#00A3E0"/>
<path d="M237.674 303.911L351.478 238.208V150.604L313.543 172.505V216.307L237.674 260.109V303.911ZM313.543 128.703V84.901L351.478 63V106.802L313.543 128.703Z" fill="#0076A8"/>
</svg>
