<svg width="975" height="833" viewBox="0 0 975 833" fill="none" xmlns="http://www.w3.org/2000/svg">
<path opacity="0.1" d="M487.48 832.64C745.11 832.64 953.96 646.247 953.96 416.32C953.96 186.393 745.11 0 487.48 0C229.85 0 21 186.393 21 416.32C21 646.247 229.85 832.64 487.48 832.64Z" fill="#62B5E5"/>
<g clip-path="url(#clip0)">
<path d="M520.967 192.958C556.313 192.958 584.967 164.304 584.967 128.958C584.967 93.6117 556.313 64.9579 520.967 64.9579C485.621 64.9579 456.967 93.6117 456.967 128.958C456.967 164.304 485.621 192.958 520.967 192.958Z" fill="#62B5E5"/>
<path d="M328.263 436.972C328.263 560.582 254.779 603.742 164.132 603.742C73.4842 603.742 0 560.582 0 436.972C0 313.362 164.132 156.11 164.132 156.11C164.132 156.11 328.263 313.362 328.263 436.972Z" fill="#E3E48D"/>
<path d="M158.153 584.833L159.833 481.383L229.79 353.4L160.097 465.154L160.852 418.639L209.067 326.044L161.052 406.329L162.412 322.669L214.04 248.952L162.625 309.514L163.474 156.11L158.138 359.188L158.576 350.811L106.085 270.464L157.735 366.893L152.844 460.327L152.698 457.847L92.185 373.294L152.515 466.608L151.903 478.293L151.794 478.469L151.844 479.428L139.435 716.478H156.014L158.003 594.037L218.185 500.952L158.153 584.833Z" fill="#3F3D56"/>
<path d="M814.647 372.122C814.647 523.133 724.873 575.861 614.132 575.861C503.39 575.861 413.616 523.133 413.616 372.122C413.616 221.11 614.132 29 614.132 29C614.132 29 814.647 221.11 814.647 372.122Z" fill="#E3E48D"/>
<path d="M606.827 552.761L608.88 426.378L694.345 270.024L609.202 406.552L610.126 349.725L669.028 236.605L610.37 334.687L612.03 232.481L675.104 142.423L612.291 216.409L613.329 29L606.809 277.096L607.345 266.861L543.218 168.704L606.317 286.508L600.341 400.654L600.164 397.625L526.236 294.329L599.94 408.328L599.192 422.603L599.059 422.818L599.12 423.99L583.96 713.589H604.214L606.645 564.005L680.167 450.285L606.827 552.761Z" fill="#3F3D56"/>
<path d="M399.967 724.958C570.071 724.958 707.967 720.033 707.967 713.958C707.967 707.883 570.071 702.958 399.967 702.958C229.863 702.958 91.967 707.883 91.967 713.958C91.967 720.033 229.863 724.958 399.967 724.958Z" fill="#888888"/>
<path d="M832.967 802.958C911.391 802.958 974.967 796.914 974.967 789.458C974.967 782.002 911.391 775.958 832.967 775.958C754.543 775.958 690.967 782.002 690.967 789.458C690.967 796.914 754.543 802.958 832.967 802.958Z" fill="#767676"/>
<path d="M417.967 375.958H381.967V713.958H417.967V375.958Z" fill="#A2A2A2"/>
<path d="M564.967 452.958H343.967V390.958H564.967L628.967 421.958L564.967 452.958Z" fill="#BCBCBC"/>
<path opacity="0.1" d="M564.967 447.958H343.967V452.958H564.967L628.967 421.958L623.806 419.458L564.967 447.958Z" fill="black"/>
<path d="M235.967 534.958H456.967V472.958H235.967L171.967 503.958L235.967 534.958Z" fill="#BCBCBC"/>
<path opacity="0.1" d="M177.128 501.458L171.967 503.958L235.967 534.958H456.967V529.958H235.967L177.128 501.458Z" fill="black"/>
<path d="M505.967 402.958H467.967V440.958H505.967V402.958Z" fill="#86BC25"/>
<path d="M314.967 522.958C325.46 522.958 333.967 514.451 333.967 503.958C333.967 493.465 325.46 484.958 314.967 484.958C304.474 484.958 295.967 493.465 295.967 503.958C295.967 514.451 304.474 522.958 314.967 522.958Z" fill="#86BC25"/>
<path d="M399.967 430.958C406.042 430.958 410.967 426.033 410.967 419.958C410.967 413.883 406.042 408.958 399.967 408.958C393.892 408.958 388.967 413.883 388.967 419.958C388.967 426.033 393.892 430.958 399.967 430.958Z" fill="#2F2E41"/>
<path d="M399.967 512.958C406.042 512.958 410.967 508.033 410.967 501.958C410.967 495.883 406.042 490.958 399.967 490.958C393.892 490.958 388.967 495.883 388.967 501.958C388.967 508.033 393.892 512.958 399.967 512.958Z" fill="#2F2E41"/>
<path d="M325.967 676.294C325.967 698.763 312.611 706.608 296.133 706.608C295.751 706.608 295.37 706.604 294.99 706.595C294.226 706.579 293.47 706.542 292.723 706.491C277.853 705.439 266.299 697.19 266.299 676.294C266.299 654.669 293.934 627.382 296.009 625.362L296.013 625.359C296.093 625.28 296.133 625.242 296.133 625.242C296.133 625.242 325.967 653.825 325.967 676.294Z" fill="#86BC25"/>
<path d="M295.046 703.17L305.958 687.924L295.019 704.845L294.99 706.595C294.226 706.579 293.47 706.542 292.723 706.491L293.899 684.012L293.89 683.837L293.91 683.805L294.021 681.682L283.055 664.719L294.055 680.089L294.081 680.54L294.97 663.556L285.581 646.028L295.084 660.575L296.01 625.362L296.013 625.242V625.358L295.859 653.126L305.205 642.118L295.82 655.518L295.573 670.725L304.3 656.13L295.537 672.962L295.399 681.416L308.068 661.104L295.352 684.366L295.046 703.17Z" fill="#3F3D56"/>
<path d="M787.007 764.872C787.007 764.872 772.848 776.795 765.396 776.05C757.944 775.305 743.785 775.305 749.746 783.502C755.708 791.7 780.3 796.171 790.733 796.916C801.166 797.661 824.268 798.407 822.777 793.935C821.287 789.464 819.797 768.598 813.835 767.108C807.873 765.617 787.007 764.872 787.007 764.872Z" fill="#96AFBE"/>
<path d="M868.273 753.165C868.273 753.165 857.839 768.455 850.461 769.74C843.082 771.026 829.444 774.831 837.39 781.124C845.335 787.418 870.224 785.115 880.474 783.029C890.723 780.943 913.175 775.452 910.538 771.546C907.9 767.64 900.857 747.942 894.714 748.109C888.571 748.275 868.273 753.165 868.273 753.165Z" fill="#96AFBE"/>
<path d="M778.713 534.496C778.713 534.496 769.122 600.18 771.358 612.103C773.593 624.027 775.084 642.657 775.084 642.657C775.084 642.657 773.593 658.306 775.084 665.758C776.574 673.211 785.517 744.006 785.517 745.496C785.517 746.987 784.026 751.458 785.517 755.184C787.007 758.91 789.988 755.929 785.517 761.891C781.045 767.853 784.026 769.343 784.771 769.343C785.517 769.343 814.58 772.324 816.07 769.343C817.561 766.362 815.325 765.617 816.07 761.891C816.816 758.165 817.561 757.42 819.051 756.675C820.542 755.929 823.523 757.42 821.287 753.694C819.051 749.968 813.835 745.496 815.325 743.261C816.816 741.025 814.58 724.63 814.58 724.63C814.58 724.63 813.09 688.115 812.344 665.758C811.599 643.402 819.051 620.3 819.051 620.3C819.979 638.593 826.773 656.1 838.427 670.23C857.802 693.331 867.49 736.554 867.49 736.554C867.49 736.554 871.961 743.261 869.726 749.222C867.49 755.184 860.783 751.458 867.49 755.184C874.197 758.91 897.299 753.694 899.534 751.458C901.77 749.222 896.554 746.242 898.044 740.28C899.534 734.318 905.496 735.809 900.28 732.828C895.063 729.847 893.573 730.592 893.573 727.611C893.573 724.63 880.159 659.797 859.293 641.166L857.802 573.352C857.802 573.352 876.433 525.658 857.057 521.187C837.682 516.716 778.713 534.496 778.713 534.496Z" fill="#3A3A3A"/>
<path d="M792.224 357.985C792.224 357.985 804.892 389.284 801.911 393.756C798.931 398.227 838.427 378.851 838.427 378.851C838.427 378.851 825.758 347.552 825.758 343.826C825.758 340.1 792.224 357.985 792.224 357.985Z" fill="#98724F"/>
<path d="M801.539 365.81C816.767 365.81 829.112 353.465 829.112 338.237C829.112 323.009 816.767 310.664 801.539 310.664C786.311 310.664 773.966 323.009 773.966 338.237C773.966 353.465 786.311 365.81 801.539 365.81Z" fill="#98724F"/>
<path d="M838.427 366.183C838.427 366.183 819.051 363.947 809.363 375.87C799.676 387.794 798.185 390.775 798.185 390.775C798.185 390.775 775.084 428.035 779.555 446.666C780.645 448.348 781.64 450.089 782.536 451.882C784.026 454.863 784.026 496.595 782.536 503.302C781.045 510.009 779.555 512.245 781.045 521.932C782.536 531.62 769.122 547.27 784.771 550.25C800.421 553.231 812.344 550.996 817.561 544.289C822.777 537.582 818.306 533.111 834.701 533.111C851.095 533.111 861.528 521.932 861.528 521.932C861.528 521.932 853.331 512.99 856.312 511.499C859.293 510.009 856.312 506.283 854.822 502.557C853.331 498.831 853.331 495.85 855.567 495.85C857.802 495.85 856.312 494.359 854.822 490.633C853.331 486.907 880.904 422.819 864.509 404.189C848.115 385.558 839.917 375.125 839.917 375.125C839.917 375.125 842.898 363.947 838.427 366.183Z" fill="#86BC25"/>
<path d="M795.95 436.978V469.767L772.103 548.76C772.103 548.76 756.453 589.747 772.103 589.747C787.752 589.747 786.914 550.626 786.914 550.626L820.542 491.379C820.542 491.379 833.956 444.43 832.465 440.704C830.975 436.978 795.95 436.978 795.95 436.978Z" fill="#98724F"/>
<path d="M808.618 388.539C808.618 388.539 786.262 397.482 792.224 421.328C798.185 445.175 792.224 444.43 792.224 444.43C792.224 444.43 822.777 441.449 832.465 448.156L834.701 439.214C834.701 439.214 843.643 387.794 808.618 388.539Z" fill="#86BC25"/>
<path d="M792.124 317.538C790.403 318.148 788.557 318.321 786.753 318.04C784.949 317.759 783.243 317.034 781.79 315.93C778.981 313.615 777.789 309.345 779.442 306.102C780.868 303.302 783.92 301.765 786.847 300.619C793.303 298.094 800.103 296.559 807.018 296.065C810.314 295.83 813.777 295.868 816.719 297.374C818.174 298.119 819.439 299.194 820.88 299.966C823.531 301.385 826.616 301.701 829.48 302.614C832.411 303.57 835.102 305.145 837.372 307.231C839.641 309.317 841.437 311.867 842.636 314.707C843.414 316.635 843.958 318.651 844.256 320.709C845.113 326.346 844.514 332.107 842.517 337.447C839.34 345.905 832.678 353.299 832.302 362.326C828.224 359.367 826.712 354.028 823.444 350.193C821.013 347.359 817.692 345.433 814.025 344.73C813.01 344.668 812.034 344.312 811.217 343.706C810.648 343.026 810.292 342.194 810.192 341.314L807.402 328.14C806.834 325.459 806.116 322.535 803.912 320.906C802.54 320.028 800.984 319.48 799.365 319.304C795.517 318.632 791.621 318.276 787.715 318.242" fill="#2F2E41"/>
</g>
<defs>
<clipPath id="clip0">
<rect width="974.967" height="773.958" fill="white" transform="translate(0 29)"/>
</clipPath>
</defs>
</svg>
